M48
; DRILL file {KiCad 5.1.4-e60b266~84~ubuntu19.04.1} date Tue 01 Oct 2019 07:46:42 PM MDT
; FORMAT={-:-/ absolute / inch / decimal}
; #@! TF.CreationDate,2019-10-01T19:46:42-06:00
; #@! TF.GenerationSoftware,Kicad,Pcbnew,5.1.4-e60b266~84~ubuntu19.04.1
; #@! TF.FileFunction,Plated,1,2,PTH
FMAT,2
INCH
T1C0.0157
T2C0.0197
T3C0.0394
%
G90
G05
T1
X4.2323Y-3.8976
X4.2913Y-3.622
X4.4882Y-2.5787
X4.4882Y-2.8543
X4.4882Y-3.1299
X4.4882Y-3.4055
X4.4882Y-3.6811
X4.5669Y-3.3465
X4.7638Y-2.5787
X4.7638Y-2.8543
X4.7638Y-3.1299
X4.7638Y-3.4055
X4.8425Y-3.0709
X4.8819Y-3.563
X4.8819Y-4.3504
X4.9803Y-4.1732
X5.0394Y-2.5787
X5.0394Y-2.8543
X5.0394Y-3.1299
X5.0394Y-3.4055
X5.0984Y-4.0157
X5.0984Y-4.2717
X5.1181Y-2.7953
X5.1575Y-3.563
X5.315Y-2.5787
X5.315Y-2.8543
X5.315Y-3.1299
X5.315Y-3.4055
X5.315Y-3.6811
X5.3543Y-2.6772
X5.4134Y-3.8976
T2
X4.4094Y-2.2835
X4.8031Y-4.1732
X5.5118Y-2.3228
T3
X4.0551Y-2.2819
X4.0551Y-2.3819
X4.1551Y-2.2819
X4.1551Y-2.3819
X4.2551Y-2.2819
X4.2551Y-2.3819
T0
M30
