G04 #@! TF.GenerationSoftware,KiCad,Pcbnew,5.1.4-e60b266~84~ubuntu19.04.1*
G04 #@! TF.CreationDate,2019-10-10T20:23:52-06:00*
G04 #@! TF.ProjectId,Christmas Card,43687269-7374-46d6-9173-20436172642e,rev?*
G04 #@! TF.SameCoordinates,Original*
G04 #@! TF.FileFunction,Soldermask,Top*
G04 #@! TF.FilePolarity,Negative*
%FSLAX46Y46*%
G04 Gerber Fmt 4.6, Leading zero omitted, Abs format (unit mm)*
G04 Created by KiCad (PCBNEW 5.1.4-e60b266~84~ubuntu19.04.1) date 2019-10-10 20:23:52*
%MOMM*%
%LPD*%
G04 APERTURE LIST*
%ADD10C,0.100000*%
G04 APERTURE END LIST*
D10*
G36*
X120449928Y-107451764D02*
G01*
X120471009Y-107458160D01*
X120490445Y-107468548D01*
X120507476Y-107482524D01*
X120521452Y-107499555D01*
X120531840Y-107518991D01*
X120538236Y-107540072D01*
X120541000Y-107568140D01*
X120541000Y-109381860D01*
X120538236Y-109409928D01*
X120531840Y-109431009D01*
X120521452Y-109450445D01*
X120507476Y-109467476D01*
X120490445Y-109481452D01*
X120471009Y-109491840D01*
X120449928Y-109498236D01*
X120421860Y-109501000D01*
X119958140Y-109501000D01*
X119930072Y-109498236D01*
X119908991Y-109491840D01*
X119889555Y-109481452D01*
X119872524Y-109467476D01*
X119858548Y-109450445D01*
X119848160Y-109431009D01*
X119841764Y-109409928D01*
X119839000Y-109381860D01*
X119839000Y-107568140D01*
X119841764Y-107540072D01*
X119848160Y-107518991D01*
X119858548Y-107499555D01*
X119872524Y-107482524D01*
X119889555Y-107468548D01*
X119908991Y-107458160D01*
X119930072Y-107451764D01*
X119958140Y-107449000D01*
X120421860Y-107449000D01*
X120449928Y-107451764D01*
X120449928Y-107451764D01*
G37*
G36*
X121719928Y-107451764D02*
G01*
X121741009Y-107458160D01*
X121760445Y-107468548D01*
X121777476Y-107482524D01*
X121791452Y-107499555D01*
X121801840Y-107518991D01*
X121808236Y-107540072D01*
X121811000Y-107568140D01*
X121811000Y-109381860D01*
X121808236Y-109409928D01*
X121801840Y-109431009D01*
X121791452Y-109450445D01*
X121777476Y-109467476D01*
X121760445Y-109481452D01*
X121741009Y-109491840D01*
X121719928Y-109498236D01*
X121691860Y-109501000D01*
X121228140Y-109501000D01*
X121200072Y-109498236D01*
X121178991Y-109491840D01*
X121159555Y-109481452D01*
X121142524Y-109467476D01*
X121128548Y-109450445D01*
X121118160Y-109431009D01*
X121111764Y-109409928D01*
X121109000Y-109381860D01*
X121109000Y-107568140D01*
X121111764Y-107540072D01*
X121118160Y-107518991D01*
X121128548Y-107499555D01*
X121142524Y-107482524D01*
X121159555Y-107468548D01*
X121178991Y-107458160D01*
X121200072Y-107451764D01*
X121228140Y-107449000D01*
X121691860Y-107449000D01*
X121719928Y-107451764D01*
X121719928Y-107451764D01*
G37*
G36*
X122989928Y-107451764D02*
G01*
X123011009Y-107458160D01*
X123030445Y-107468548D01*
X123047476Y-107482524D01*
X123061452Y-107499555D01*
X123071840Y-107518991D01*
X123078236Y-107540072D01*
X123081000Y-107568140D01*
X123081000Y-109381860D01*
X123078236Y-109409928D01*
X123071840Y-109431009D01*
X123061452Y-109450445D01*
X123047476Y-109467476D01*
X123030445Y-109481452D01*
X123011009Y-109491840D01*
X122989928Y-109498236D01*
X122961860Y-109501000D01*
X122498140Y-109501000D01*
X122470072Y-109498236D01*
X122448991Y-109491840D01*
X122429555Y-109481452D01*
X122412524Y-109467476D01*
X122398548Y-109450445D01*
X122388160Y-109431009D01*
X122381764Y-109409928D01*
X122379000Y-109381860D01*
X122379000Y-107568140D01*
X122381764Y-107540072D01*
X122388160Y-107518991D01*
X122398548Y-107499555D01*
X122412524Y-107482524D01*
X122429555Y-107468548D01*
X122448991Y-107458160D01*
X122470072Y-107451764D01*
X122498140Y-107449000D01*
X122961860Y-107449000D01*
X122989928Y-107451764D01*
X122989928Y-107451764D01*
G37*
G36*
X124259928Y-107451764D02*
G01*
X124281009Y-107458160D01*
X124300445Y-107468548D01*
X124317476Y-107482524D01*
X124331452Y-107499555D01*
X124341840Y-107518991D01*
X124348236Y-107540072D01*
X124351000Y-107568140D01*
X124351000Y-109381860D01*
X124348236Y-109409928D01*
X124341840Y-109431009D01*
X124331452Y-109450445D01*
X124317476Y-109467476D01*
X124300445Y-109481452D01*
X124281009Y-109491840D01*
X124259928Y-109498236D01*
X124231860Y-109501000D01*
X123768140Y-109501000D01*
X123740072Y-109498236D01*
X123718991Y-109491840D01*
X123699555Y-109481452D01*
X123682524Y-109467476D01*
X123668548Y-109450445D01*
X123658160Y-109431009D01*
X123651764Y-109409928D01*
X123649000Y-109381860D01*
X123649000Y-107568140D01*
X123651764Y-107540072D01*
X123658160Y-107518991D01*
X123668548Y-107499555D01*
X123682524Y-107482524D01*
X123699555Y-107468548D01*
X123718991Y-107458160D01*
X123740072Y-107451764D01*
X123768140Y-107449000D01*
X124231860Y-107449000D01*
X124259928Y-107451764D01*
X124259928Y-107451764D01*
G37*
G36*
X125529928Y-107451764D02*
G01*
X125551009Y-107458160D01*
X125570445Y-107468548D01*
X125587476Y-107482524D01*
X125601452Y-107499555D01*
X125611840Y-107518991D01*
X125618236Y-107540072D01*
X125621000Y-107568140D01*
X125621000Y-109381860D01*
X125618236Y-109409928D01*
X125611840Y-109431009D01*
X125601452Y-109450445D01*
X125587476Y-109467476D01*
X125570445Y-109481452D01*
X125551009Y-109491840D01*
X125529928Y-109498236D01*
X125501860Y-109501000D01*
X125038140Y-109501000D01*
X125010072Y-109498236D01*
X124988991Y-109491840D01*
X124969555Y-109481452D01*
X124952524Y-109467476D01*
X124938548Y-109450445D01*
X124928160Y-109431009D01*
X124921764Y-109409928D01*
X124919000Y-109381860D01*
X124919000Y-107568140D01*
X124921764Y-107540072D01*
X124928160Y-107518991D01*
X124938548Y-107499555D01*
X124952524Y-107482524D01*
X124969555Y-107468548D01*
X124988991Y-107458160D01*
X125010072Y-107451764D01*
X125038140Y-107449000D01*
X125501860Y-107449000D01*
X125529928Y-107451764D01*
X125529928Y-107451764D01*
G37*
G36*
X126799928Y-107451764D02*
G01*
X126821009Y-107458160D01*
X126840445Y-107468548D01*
X126857476Y-107482524D01*
X126871452Y-107499555D01*
X126881840Y-107518991D01*
X126888236Y-107540072D01*
X126891000Y-107568140D01*
X126891000Y-109381860D01*
X126888236Y-109409928D01*
X126881840Y-109431009D01*
X126871452Y-109450445D01*
X126857476Y-109467476D01*
X126840445Y-109481452D01*
X126821009Y-109491840D01*
X126799928Y-109498236D01*
X126771860Y-109501000D01*
X126308140Y-109501000D01*
X126280072Y-109498236D01*
X126258991Y-109491840D01*
X126239555Y-109481452D01*
X126222524Y-109467476D01*
X126208548Y-109450445D01*
X126198160Y-109431009D01*
X126191764Y-109409928D01*
X126189000Y-109381860D01*
X126189000Y-107568140D01*
X126191764Y-107540072D01*
X126198160Y-107518991D01*
X126208548Y-107499555D01*
X126222524Y-107482524D01*
X126239555Y-107468548D01*
X126258991Y-107458160D01*
X126280072Y-107451764D01*
X126308140Y-107449000D01*
X126771860Y-107449000D01*
X126799928Y-107451764D01*
X126799928Y-107451764D01*
G37*
G36*
X128069928Y-107451764D02*
G01*
X128091009Y-107458160D01*
X128110445Y-107468548D01*
X128127476Y-107482524D01*
X128141452Y-107499555D01*
X128151840Y-107518991D01*
X128158236Y-107540072D01*
X128161000Y-107568140D01*
X128161000Y-109381860D01*
X128158236Y-109409928D01*
X128151840Y-109431009D01*
X128141452Y-109450445D01*
X128127476Y-109467476D01*
X128110445Y-109481452D01*
X128091009Y-109491840D01*
X128069928Y-109498236D01*
X128041860Y-109501000D01*
X127578140Y-109501000D01*
X127550072Y-109498236D01*
X127528991Y-109491840D01*
X127509555Y-109481452D01*
X127492524Y-109467476D01*
X127478548Y-109450445D01*
X127468160Y-109431009D01*
X127461764Y-109409928D01*
X127459000Y-109381860D01*
X127459000Y-107568140D01*
X127461764Y-107540072D01*
X127468160Y-107518991D01*
X127478548Y-107499555D01*
X127492524Y-107482524D01*
X127509555Y-107468548D01*
X127528991Y-107458160D01*
X127550072Y-107451764D01*
X127578140Y-107449000D01*
X128041860Y-107449000D01*
X128069928Y-107451764D01*
X128069928Y-107451764D01*
G37*
G36*
X133846000Y-108951000D02*
G01*
X132194000Y-108951000D01*
X132194000Y-107549000D01*
X133846000Y-107549000D01*
X133846000Y-108951000D01*
X133846000Y-108951000D01*
G37*
G36*
X112806000Y-108951000D02*
G01*
X111154000Y-108951000D01*
X111154000Y-107549000D01*
X112806000Y-107549000D01*
X112806000Y-108951000D01*
X112806000Y-108951000D01*
G37*
G36*
X104846000Y-108951000D02*
G01*
X103194000Y-108951000D01*
X103194000Y-107549000D01*
X104846000Y-107549000D01*
X104846000Y-108951000D01*
X104846000Y-108951000D01*
G37*
G36*
X141806000Y-108951000D02*
G01*
X140154000Y-108951000D01*
X140154000Y-107549000D01*
X141806000Y-107549000D01*
X141806000Y-108951000D01*
X141806000Y-108951000D01*
G37*
G36*
X117584468Y-106403565D02*
G01*
X117623138Y-106415296D01*
X117658777Y-106434346D01*
X117690017Y-106459983D01*
X117715654Y-106491223D01*
X117734704Y-106526862D01*
X117746435Y-106565532D01*
X117751000Y-106611888D01*
X117751000Y-107263112D01*
X117746435Y-107309468D01*
X117734704Y-107348138D01*
X117715654Y-107383777D01*
X117690017Y-107415017D01*
X117658777Y-107440654D01*
X117623138Y-107459704D01*
X117584468Y-107471435D01*
X117538112Y-107476000D01*
X116461888Y-107476000D01*
X116415532Y-107471435D01*
X116376862Y-107459704D01*
X116341223Y-107440654D01*
X116309983Y-107415017D01*
X116284346Y-107383777D01*
X116265296Y-107348138D01*
X116253565Y-107309468D01*
X116249000Y-107263112D01*
X116249000Y-106611888D01*
X116253565Y-106565532D01*
X116265296Y-106526862D01*
X116284346Y-106491223D01*
X116309983Y-106459983D01*
X116341223Y-106434346D01*
X116376862Y-106415296D01*
X116415532Y-106403565D01*
X116461888Y-106399000D01*
X117538112Y-106399000D01*
X117584468Y-106403565D01*
X117584468Y-106403565D01*
G37*
G36*
X117584468Y-104528565D02*
G01*
X117623138Y-104540296D01*
X117658777Y-104559346D01*
X117690017Y-104584983D01*
X117715654Y-104616223D01*
X117734704Y-104651862D01*
X117746435Y-104690532D01*
X117751000Y-104736888D01*
X117751000Y-105388112D01*
X117746435Y-105434468D01*
X117734704Y-105473138D01*
X117715654Y-105508777D01*
X117690017Y-105540017D01*
X117658777Y-105565654D01*
X117623138Y-105584704D01*
X117584468Y-105596435D01*
X117538112Y-105601000D01*
X116461888Y-105601000D01*
X116415532Y-105596435D01*
X116376862Y-105584704D01*
X116341223Y-105565654D01*
X116309983Y-105540017D01*
X116284346Y-105508777D01*
X116265296Y-105473138D01*
X116253565Y-105434468D01*
X116249000Y-105388112D01*
X116249000Y-104736888D01*
X116253565Y-104690532D01*
X116265296Y-104651862D01*
X116284346Y-104616223D01*
X116309983Y-104584983D01*
X116341223Y-104559346D01*
X116376862Y-104540296D01*
X116415532Y-104528565D01*
X116461888Y-104524000D01*
X117538112Y-104524000D01*
X117584468Y-104528565D01*
X117584468Y-104528565D01*
G37*
G36*
X122989928Y-102501764D02*
G01*
X123011009Y-102508160D01*
X123030445Y-102518548D01*
X123047476Y-102532524D01*
X123061452Y-102549555D01*
X123071840Y-102568991D01*
X123078236Y-102590072D01*
X123081000Y-102618140D01*
X123081000Y-104431860D01*
X123078236Y-104459928D01*
X123071840Y-104481009D01*
X123061452Y-104500445D01*
X123047476Y-104517476D01*
X123030445Y-104531452D01*
X123011009Y-104541840D01*
X122989928Y-104548236D01*
X122961860Y-104551000D01*
X122498140Y-104551000D01*
X122470072Y-104548236D01*
X122448991Y-104541840D01*
X122429555Y-104531452D01*
X122412524Y-104517476D01*
X122398548Y-104500445D01*
X122388160Y-104481009D01*
X122381764Y-104459928D01*
X122379000Y-104431860D01*
X122379000Y-102618140D01*
X122381764Y-102590072D01*
X122388160Y-102568991D01*
X122398548Y-102549555D01*
X122412524Y-102532524D01*
X122429555Y-102518548D01*
X122448991Y-102508160D01*
X122470072Y-102501764D01*
X122498140Y-102499000D01*
X122961860Y-102499000D01*
X122989928Y-102501764D01*
X122989928Y-102501764D01*
G37*
G36*
X120449928Y-102501764D02*
G01*
X120471009Y-102508160D01*
X120490445Y-102518548D01*
X120507476Y-102532524D01*
X120521452Y-102549555D01*
X120531840Y-102568991D01*
X120538236Y-102590072D01*
X120541000Y-102618140D01*
X120541000Y-104431860D01*
X120538236Y-104459928D01*
X120531840Y-104481009D01*
X120521452Y-104500445D01*
X120507476Y-104517476D01*
X120490445Y-104531452D01*
X120471009Y-104541840D01*
X120449928Y-104548236D01*
X120421860Y-104551000D01*
X119958140Y-104551000D01*
X119930072Y-104548236D01*
X119908991Y-104541840D01*
X119889555Y-104531452D01*
X119872524Y-104517476D01*
X119858548Y-104500445D01*
X119848160Y-104481009D01*
X119841764Y-104459928D01*
X119839000Y-104431860D01*
X119839000Y-102618140D01*
X119841764Y-102590072D01*
X119848160Y-102568991D01*
X119858548Y-102549555D01*
X119872524Y-102532524D01*
X119889555Y-102518548D01*
X119908991Y-102508160D01*
X119930072Y-102501764D01*
X119958140Y-102499000D01*
X120421860Y-102499000D01*
X120449928Y-102501764D01*
X120449928Y-102501764D01*
G37*
G36*
X121719928Y-102501764D02*
G01*
X121741009Y-102508160D01*
X121760445Y-102518548D01*
X121777476Y-102532524D01*
X121791452Y-102549555D01*
X121801840Y-102568991D01*
X121808236Y-102590072D01*
X121811000Y-102618140D01*
X121811000Y-104431860D01*
X121808236Y-104459928D01*
X121801840Y-104481009D01*
X121791452Y-104500445D01*
X121777476Y-104517476D01*
X121760445Y-104531452D01*
X121741009Y-104541840D01*
X121719928Y-104548236D01*
X121691860Y-104551000D01*
X121228140Y-104551000D01*
X121200072Y-104548236D01*
X121178991Y-104541840D01*
X121159555Y-104531452D01*
X121142524Y-104517476D01*
X121128548Y-104500445D01*
X121118160Y-104481009D01*
X121111764Y-104459928D01*
X121109000Y-104431860D01*
X121109000Y-102618140D01*
X121111764Y-102590072D01*
X121118160Y-102568991D01*
X121128548Y-102549555D01*
X121142524Y-102532524D01*
X121159555Y-102518548D01*
X121178991Y-102508160D01*
X121200072Y-102501764D01*
X121228140Y-102499000D01*
X121691860Y-102499000D01*
X121719928Y-102501764D01*
X121719928Y-102501764D01*
G37*
G36*
X124259928Y-102501764D02*
G01*
X124281009Y-102508160D01*
X124300445Y-102518548D01*
X124317476Y-102532524D01*
X124331452Y-102549555D01*
X124341840Y-102568991D01*
X124348236Y-102590072D01*
X124351000Y-102618140D01*
X124351000Y-104431860D01*
X124348236Y-104459928D01*
X124341840Y-104481009D01*
X124331452Y-104500445D01*
X124317476Y-104517476D01*
X124300445Y-104531452D01*
X124281009Y-104541840D01*
X124259928Y-104548236D01*
X124231860Y-104551000D01*
X123768140Y-104551000D01*
X123740072Y-104548236D01*
X123718991Y-104541840D01*
X123699555Y-104531452D01*
X123682524Y-104517476D01*
X123668548Y-104500445D01*
X123658160Y-104481009D01*
X123651764Y-104459928D01*
X123649000Y-104431860D01*
X123649000Y-102618140D01*
X123651764Y-102590072D01*
X123658160Y-102568991D01*
X123668548Y-102549555D01*
X123682524Y-102532524D01*
X123699555Y-102518548D01*
X123718991Y-102508160D01*
X123740072Y-102501764D01*
X123768140Y-102499000D01*
X124231860Y-102499000D01*
X124259928Y-102501764D01*
X124259928Y-102501764D01*
G37*
G36*
X125529928Y-102501764D02*
G01*
X125551009Y-102508160D01*
X125570445Y-102518548D01*
X125587476Y-102532524D01*
X125601452Y-102549555D01*
X125611840Y-102568991D01*
X125618236Y-102590072D01*
X125621000Y-102618140D01*
X125621000Y-104431860D01*
X125618236Y-104459928D01*
X125611840Y-104481009D01*
X125601452Y-104500445D01*
X125587476Y-104517476D01*
X125570445Y-104531452D01*
X125551009Y-104541840D01*
X125529928Y-104548236D01*
X125501860Y-104551000D01*
X125038140Y-104551000D01*
X125010072Y-104548236D01*
X124988991Y-104541840D01*
X124969555Y-104531452D01*
X124952524Y-104517476D01*
X124938548Y-104500445D01*
X124928160Y-104481009D01*
X124921764Y-104459928D01*
X124919000Y-104431860D01*
X124919000Y-102618140D01*
X124921764Y-102590072D01*
X124928160Y-102568991D01*
X124938548Y-102549555D01*
X124952524Y-102532524D01*
X124969555Y-102518548D01*
X124988991Y-102508160D01*
X125010072Y-102501764D01*
X125038140Y-102499000D01*
X125501860Y-102499000D01*
X125529928Y-102501764D01*
X125529928Y-102501764D01*
G37*
G36*
X126799928Y-102501764D02*
G01*
X126821009Y-102508160D01*
X126840445Y-102518548D01*
X126857476Y-102532524D01*
X126871452Y-102549555D01*
X126881840Y-102568991D01*
X126888236Y-102590072D01*
X126891000Y-102618140D01*
X126891000Y-104431860D01*
X126888236Y-104459928D01*
X126881840Y-104481009D01*
X126871452Y-104500445D01*
X126857476Y-104517476D01*
X126840445Y-104531452D01*
X126821009Y-104541840D01*
X126799928Y-104548236D01*
X126771860Y-104551000D01*
X126308140Y-104551000D01*
X126280072Y-104548236D01*
X126258991Y-104541840D01*
X126239555Y-104531452D01*
X126222524Y-104517476D01*
X126208548Y-104500445D01*
X126198160Y-104481009D01*
X126191764Y-104459928D01*
X126189000Y-104431860D01*
X126189000Y-102618140D01*
X126191764Y-102590072D01*
X126198160Y-102568991D01*
X126208548Y-102549555D01*
X126222524Y-102532524D01*
X126239555Y-102518548D01*
X126258991Y-102508160D01*
X126280072Y-102501764D01*
X126308140Y-102499000D01*
X126771860Y-102499000D01*
X126799928Y-102501764D01*
X126799928Y-102501764D01*
G37*
G36*
X128069928Y-102501764D02*
G01*
X128091009Y-102508160D01*
X128110445Y-102518548D01*
X128127476Y-102532524D01*
X128141452Y-102549555D01*
X128151840Y-102568991D01*
X128158236Y-102590072D01*
X128161000Y-102618140D01*
X128161000Y-104431860D01*
X128158236Y-104459928D01*
X128151840Y-104481009D01*
X128141452Y-104500445D01*
X128127476Y-104517476D01*
X128110445Y-104531452D01*
X128091009Y-104541840D01*
X128069928Y-104548236D01*
X128041860Y-104551000D01*
X127578140Y-104551000D01*
X127550072Y-104548236D01*
X127528991Y-104541840D01*
X127509555Y-104531452D01*
X127492524Y-104517476D01*
X127478548Y-104500445D01*
X127468160Y-104481009D01*
X127461764Y-104459928D01*
X127459000Y-104431860D01*
X127459000Y-102618140D01*
X127461764Y-102590072D01*
X127468160Y-102568991D01*
X127478548Y-102549555D01*
X127492524Y-102532524D01*
X127509555Y-102518548D01*
X127528991Y-102508160D01*
X127550072Y-102501764D01*
X127578140Y-102499000D01*
X128041860Y-102499000D01*
X128069928Y-102501764D01*
X128069928Y-102501764D01*
G37*
G36*
X133846000Y-104451000D02*
G01*
X132194000Y-104451000D01*
X132194000Y-103049000D01*
X133846000Y-103049000D01*
X133846000Y-104451000D01*
X133846000Y-104451000D01*
G37*
G36*
X104846000Y-104451000D02*
G01*
X103194000Y-104451000D01*
X103194000Y-103049000D01*
X104846000Y-103049000D01*
X104846000Y-104451000D01*
X104846000Y-104451000D01*
G37*
G36*
X141806000Y-104451000D02*
G01*
X140154000Y-104451000D01*
X140154000Y-103049000D01*
X141806000Y-103049000D01*
X141806000Y-104451000D01*
X141806000Y-104451000D01*
G37*
G36*
X112806000Y-104451000D02*
G01*
X111154000Y-104451000D01*
X111154000Y-103049000D01*
X112806000Y-103049000D01*
X112806000Y-104451000D01*
X112806000Y-104451000D01*
G37*
G36*
X106309468Y-98253565D02*
G01*
X106348138Y-98265296D01*
X106383777Y-98284346D01*
X106415017Y-98309983D01*
X106440654Y-98341223D01*
X106459704Y-98376862D01*
X106471435Y-98415532D01*
X106476000Y-98461888D01*
X106476000Y-99538112D01*
X106471435Y-99584468D01*
X106459704Y-99623138D01*
X106440654Y-99658777D01*
X106415017Y-99690017D01*
X106383777Y-99715654D01*
X106348138Y-99734704D01*
X106309468Y-99746435D01*
X106263112Y-99751000D01*
X105611888Y-99751000D01*
X105565532Y-99746435D01*
X105526862Y-99734704D01*
X105491223Y-99715654D01*
X105459983Y-99690017D01*
X105434346Y-99658777D01*
X105415296Y-99623138D01*
X105403565Y-99584468D01*
X105399000Y-99538112D01*
X105399000Y-98461888D01*
X105403565Y-98415532D01*
X105415296Y-98376862D01*
X105434346Y-98341223D01*
X105459983Y-98309983D01*
X105491223Y-98284346D01*
X105526862Y-98265296D01*
X105565532Y-98253565D01*
X105611888Y-98249000D01*
X106263112Y-98249000D01*
X106309468Y-98253565D01*
X106309468Y-98253565D01*
G37*
G36*
X139434468Y-98253565D02*
G01*
X139473138Y-98265296D01*
X139508777Y-98284346D01*
X139540017Y-98309983D01*
X139565654Y-98341223D01*
X139584704Y-98376862D01*
X139596435Y-98415532D01*
X139601000Y-98461888D01*
X139601000Y-99538112D01*
X139596435Y-99584468D01*
X139584704Y-99623138D01*
X139565654Y-99658777D01*
X139540017Y-99690017D01*
X139508777Y-99715654D01*
X139473138Y-99734704D01*
X139434468Y-99746435D01*
X139388112Y-99751000D01*
X138736888Y-99751000D01*
X138690532Y-99746435D01*
X138651862Y-99734704D01*
X138616223Y-99715654D01*
X138584983Y-99690017D01*
X138559346Y-99658777D01*
X138540296Y-99623138D01*
X138528565Y-99584468D01*
X138524000Y-99538112D01*
X138524000Y-98461888D01*
X138528565Y-98415532D01*
X138540296Y-98376862D01*
X138559346Y-98341223D01*
X138584983Y-98309983D01*
X138616223Y-98284346D01*
X138651862Y-98265296D01*
X138690532Y-98253565D01*
X138736888Y-98249000D01*
X139388112Y-98249000D01*
X139434468Y-98253565D01*
X139434468Y-98253565D01*
G37*
G36*
X141309468Y-98253565D02*
G01*
X141348138Y-98265296D01*
X141383777Y-98284346D01*
X141415017Y-98309983D01*
X141440654Y-98341223D01*
X141459704Y-98376862D01*
X141471435Y-98415532D01*
X141476000Y-98461888D01*
X141476000Y-99538112D01*
X141471435Y-99584468D01*
X141459704Y-99623138D01*
X141440654Y-99658777D01*
X141415017Y-99690017D01*
X141383777Y-99715654D01*
X141348138Y-99734704D01*
X141309468Y-99746435D01*
X141263112Y-99751000D01*
X140611888Y-99751000D01*
X140565532Y-99746435D01*
X140526862Y-99734704D01*
X140491223Y-99715654D01*
X140459983Y-99690017D01*
X140434346Y-99658777D01*
X140415296Y-99623138D01*
X140403565Y-99584468D01*
X140399000Y-99538112D01*
X140399000Y-98461888D01*
X140403565Y-98415532D01*
X140415296Y-98376862D01*
X140434346Y-98341223D01*
X140459983Y-98309983D01*
X140491223Y-98284346D01*
X140526862Y-98265296D01*
X140565532Y-98253565D01*
X140611888Y-98249000D01*
X141263112Y-98249000D01*
X141309468Y-98253565D01*
X141309468Y-98253565D01*
G37*
G36*
X104434468Y-98253565D02*
G01*
X104473138Y-98265296D01*
X104508777Y-98284346D01*
X104540017Y-98309983D01*
X104565654Y-98341223D01*
X104584704Y-98376862D01*
X104596435Y-98415532D01*
X104601000Y-98461888D01*
X104601000Y-99538112D01*
X104596435Y-99584468D01*
X104584704Y-99623138D01*
X104565654Y-99658777D01*
X104540017Y-99690017D01*
X104508777Y-99715654D01*
X104473138Y-99734704D01*
X104434468Y-99746435D01*
X104388112Y-99751000D01*
X103736888Y-99751000D01*
X103690532Y-99746435D01*
X103651862Y-99734704D01*
X103616223Y-99715654D01*
X103584983Y-99690017D01*
X103559346Y-99658777D01*
X103540296Y-99623138D01*
X103528565Y-99584468D01*
X103524000Y-99538112D01*
X103524000Y-98461888D01*
X103528565Y-98415532D01*
X103540296Y-98376862D01*
X103559346Y-98341223D01*
X103584983Y-98309983D01*
X103616223Y-98284346D01*
X103651862Y-98265296D01*
X103690532Y-98253565D01*
X103736888Y-98249000D01*
X104388112Y-98249000D01*
X104434468Y-98253565D01*
X104434468Y-98253565D01*
G37*
G36*
X112853391Y-93841302D02*
G01*
X112892061Y-93853033D01*
X112927700Y-93872083D01*
X112963706Y-93901632D01*
X113003556Y-93941482D01*
X113003562Y-93941487D01*
X113384339Y-94322264D01*
X113384344Y-94322270D01*
X113424194Y-94362120D01*
X113453743Y-94398126D01*
X113472793Y-94433765D01*
X113484524Y-94472435D01*
X113488484Y-94512653D01*
X113484524Y-94552871D01*
X113472793Y-94591541D01*
X113453743Y-94627180D01*
X113424194Y-94663186D01*
X113384344Y-94703036D01*
X113384339Y-94703042D01*
X112703042Y-95384339D01*
X112703036Y-95384344D01*
X112663186Y-95424194D01*
X112627180Y-95453743D01*
X112591541Y-95472793D01*
X112552871Y-95484524D01*
X112512653Y-95488484D01*
X112472435Y-95484524D01*
X112433765Y-95472793D01*
X112398126Y-95453743D01*
X112362120Y-95424194D01*
X112322270Y-95384344D01*
X112322264Y-95384339D01*
X111941487Y-95003562D01*
X111941482Y-95003556D01*
X111901632Y-94963706D01*
X111872083Y-94927700D01*
X111853033Y-94892061D01*
X111841302Y-94853391D01*
X111837342Y-94813173D01*
X111841302Y-94772955D01*
X111853033Y-94734285D01*
X111872083Y-94698646D01*
X111901632Y-94662640D01*
X111941482Y-94622790D01*
X111941487Y-94622784D01*
X112622784Y-93941487D01*
X112622790Y-93941482D01*
X112662640Y-93901632D01*
X112698646Y-93872083D01*
X112734285Y-93853033D01*
X112772955Y-93841302D01*
X112813173Y-93837342D01*
X112853391Y-93841302D01*
X112853391Y-93841302D01*
G37*
G36*
X119853391Y-93841302D02*
G01*
X119892061Y-93853033D01*
X119927700Y-93872083D01*
X119963706Y-93901632D01*
X120003556Y-93941482D01*
X120003562Y-93941487D01*
X120384339Y-94322264D01*
X120384344Y-94322270D01*
X120424194Y-94362120D01*
X120453743Y-94398126D01*
X120472793Y-94433765D01*
X120484524Y-94472435D01*
X120488484Y-94512653D01*
X120484524Y-94552871D01*
X120472793Y-94591541D01*
X120453743Y-94627180D01*
X120424194Y-94663186D01*
X120384344Y-94703036D01*
X120384339Y-94703042D01*
X119703042Y-95384339D01*
X119703036Y-95384344D01*
X119663186Y-95424194D01*
X119627180Y-95453743D01*
X119591541Y-95472793D01*
X119552871Y-95484524D01*
X119512653Y-95488484D01*
X119472435Y-95484524D01*
X119433765Y-95472793D01*
X119398126Y-95453743D01*
X119362120Y-95424194D01*
X119322270Y-95384344D01*
X119322264Y-95384339D01*
X118941487Y-95003562D01*
X118941482Y-95003556D01*
X118901632Y-94963706D01*
X118872083Y-94927700D01*
X118853033Y-94892061D01*
X118841302Y-94853391D01*
X118837342Y-94813173D01*
X118841302Y-94772955D01*
X118853033Y-94734285D01*
X118872083Y-94698646D01*
X118901632Y-94662640D01*
X118941482Y-94622790D01*
X118941487Y-94622784D01*
X119622784Y-93941487D01*
X119622790Y-93941482D01*
X119662640Y-93901632D01*
X119698646Y-93872083D01*
X119734285Y-93853033D01*
X119772955Y-93841302D01*
X119813173Y-93837342D01*
X119853391Y-93841302D01*
X119853391Y-93841302D01*
G37*
G36*
X126853391Y-93841302D02*
G01*
X126892061Y-93853033D01*
X126927700Y-93872083D01*
X126963706Y-93901632D01*
X127003556Y-93941482D01*
X127003562Y-93941487D01*
X127384339Y-94322264D01*
X127384344Y-94322270D01*
X127424194Y-94362120D01*
X127453743Y-94398126D01*
X127472793Y-94433765D01*
X127484524Y-94472435D01*
X127488484Y-94512653D01*
X127484524Y-94552871D01*
X127472793Y-94591541D01*
X127453743Y-94627180D01*
X127424194Y-94663186D01*
X127384344Y-94703036D01*
X127384339Y-94703042D01*
X126703042Y-95384339D01*
X126703036Y-95384344D01*
X126663186Y-95424194D01*
X126627180Y-95453743D01*
X126591541Y-95472793D01*
X126552871Y-95484524D01*
X126512653Y-95488484D01*
X126472435Y-95484524D01*
X126433765Y-95472793D01*
X126398126Y-95453743D01*
X126362120Y-95424194D01*
X126322270Y-95384344D01*
X126322264Y-95384339D01*
X125941487Y-95003562D01*
X125941482Y-95003556D01*
X125901632Y-94963706D01*
X125872083Y-94927700D01*
X125853033Y-94892061D01*
X125841302Y-94853391D01*
X125837342Y-94813173D01*
X125841302Y-94772955D01*
X125853033Y-94734285D01*
X125872083Y-94698646D01*
X125901632Y-94662640D01*
X125941482Y-94622790D01*
X125941487Y-94622784D01*
X126622784Y-93941487D01*
X126622790Y-93941482D01*
X126662640Y-93901632D01*
X126698646Y-93872083D01*
X126734285Y-93853033D01*
X126772955Y-93841302D01*
X126813173Y-93837342D01*
X126853391Y-93841302D01*
X126853391Y-93841302D01*
G37*
G36*
X133853391Y-93841302D02*
G01*
X133892061Y-93853033D01*
X133927700Y-93872083D01*
X133963706Y-93901632D01*
X134003556Y-93941482D01*
X134003562Y-93941487D01*
X134384339Y-94322264D01*
X134384344Y-94322270D01*
X134424194Y-94362120D01*
X134453743Y-94398126D01*
X134472793Y-94433765D01*
X134484524Y-94472435D01*
X134488484Y-94512653D01*
X134484524Y-94552871D01*
X134472793Y-94591541D01*
X134453743Y-94627180D01*
X134424194Y-94663186D01*
X134384344Y-94703036D01*
X134384339Y-94703042D01*
X133703042Y-95384339D01*
X133703036Y-95384344D01*
X133663186Y-95424194D01*
X133627180Y-95453743D01*
X133591541Y-95472793D01*
X133552871Y-95484524D01*
X133512653Y-95488484D01*
X133472435Y-95484524D01*
X133433765Y-95472793D01*
X133398126Y-95453743D01*
X133362120Y-95424194D01*
X133322270Y-95384344D01*
X133322264Y-95384339D01*
X132941487Y-95003562D01*
X132941482Y-95003556D01*
X132901632Y-94963706D01*
X132872083Y-94927700D01*
X132853033Y-94892061D01*
X132841302Y-94853391D01*
X132837342Y-94813173D01*
X132841302Y-94772955D01*
X132853033Y-94734285D01*
X132872083Y-94698646D01*
X132901632Y-94662640D01*
X132941482Y-94622790D01*
X132941487Y-94622784D01*
X133622784Y-93941487D01*
X133622790Y-93941482D01*
X133662640Y-93901632D01*
X133698646Y-93872083D01*
X133734285Y-93853033D01*
X133772955Y-93841302D01*
X133813173Y-93837342D01*
X133853391Y-93841302D01*
X133853391Y-93841302D01*
G37*
G36*
X118527565Y-92515476D02*
G01*
X118566235Y-92527207D01*
X118601874Y-92546257D01*
X118637880Y-92575806D01*
X118677730Y-92615656D01*
X118677736Y-92615661D01*
X119058513Y-92996438D01*
X119058518Y-92996444D01*
X119098368Y-93036294D01*
X119127917Y-93072300D01*
X119146967Y-93107939D01*
X119158698Y-93146609D01*
X119162658Y-93186827D01*
X119158698Y-93227045D01*
X119146967Y-93265715D01*
X119127917Y-93301354D01*
X119098368Y-93337360D01*
X119058518Y-93377210D01*
X119058513Y-93377216D01*
X118377216Y-94058513D01*
X118377210Y-94058518D01*
X118337360Y-94098368D01*
X118301354Y-94127917D01*
X118265715Y-94146967D01*
X118227045Y-94158698D01*
X118186827Y-94162658D01*
X118146609Y-94158698D01*
X118107939Y-94146967D01*
X118072300Y-94127917D01*
X118036294Y-94098368D01*
X117996444Y-94058518D01*
X117996438Y-94058513D01*
X117615661Y-93677736D01*
X117615656Y-93677730D01*
X117575806Y-93637880D01*
X117546257Y-93601874D01*
X117527207Y-93566235D01*
X117515476Y-93527565D01*
X117511516Y-93487347D01*
X117515476Y-93447129D01*
X117527207Y-93408459D01*
X117546257Y-93372820D01*
X117575806Y-93336814D01*
X117615656Y-93296964D01*
X117615661Y-93296958D01*
X118296958Y-92615661D01*
X118296964Y-92615656D01*
X118336814Y-92575806D01*
X118372820Y-92546257D01*
X118408459Y-92527207D01*
X118447129Y-92515476D01*
X118487347Y-92511516D01*
X118527565Y-92515476D01*
X118527565Y-92515476D01*
G37*
G36*
X111527565Y-92515476D02*
G01*
X111566235Y-92527207D01*
X111601874Y-92546257D01*
X111637880Y-92575806D01*
X111677730Y-92615656D01*
X111677736Y-92615661D01*
X112058513Y-92996438D01*
X112058518Y-92996444D01*
X112098368Y-93036294D01*
X112127917Y-93072300D01*
X112146967Y-93107939D01*
X112158698Y-93146609D01*
X112162658Y-93186827D01*
X112158698Y-93227045D01*
X112146967Y-93265715D01*
X112127917Y-93301354D01*
X112098368Y-93337360D01*
X112058518Y-93377210D01*
X112058513Y-93377216D01*
X111377216Y-94058513D01*
X111377210Y-94058518D01*
X111337360Y-94098368D01*
X111301354Y-94127917D01*
X111265715Y-94146967D01*
X111227045Y-94158698D01*
X111186827Y-94162658D01*
X111146609Y-94158698D01*
X111107939Y-94146967D01*
X111072300Y-94127917D01*
X111036294Y-94098368D01*
X110996444Y-94058518D01*
X110996438Y-94058513D01*
X110615661Y-93677736D01*
X110615656Y-93677730D01*
X110575806Y-93637880D01*
X110546257Y-93601874D01*
X110527207Y-93566235D01*
X110515476Y-93527565D01*
X110511516Y-93487347D01*
X110515476Y-93447129D01*
X110527207Y-93408459D01*
X110546257Y-93372820D01*
X110575806Y-93336814D01*
X110615656Y-93296964D01*
X110615661Y-93296958D01*
X111296958Y-92615661D01*
X111296964Y-92615656D01*
X111336814Y-92575806D01*
X111372820Y-92546257D01*
X111408459Y-92527207D01*
X111447129Y-92515476D01*
X111487347Y-92511516D01*
X111527565Y-92515476D01*
X111527565Y-92515476D01*
G37*
G36*
X125527565Y-92515476D02*
G01*
X125566235Y-92527207D01*
X125601874Y-92546257D01*
X125637880Y-92575806D01*
X125677730Y-92615656D01*
X125677736Y-92615661D01*
X126058513Y-92996438D01*
X126058518Y-92996444D01*
X126098368Y-93036294D01*
X126127917Y-93072300D01*
X126146967Y-93107939D01*
X126158698Y-93146609D01*
X126162658Y-93186827D01*
X126158698Y-93227045D01*
X126146967Y-93265715D01*
X126127917Y-93301354D01*
X126098368Y-93337360D01*
X126058518Y-93377210D01*
X126058513Y-93377216D01*
X125377216Y-94058513D01*
X125377210Y-94058518D01*
X125337360Y-94098368D01*
X125301354Y-94127917D01*
X125265715Y-94146967D01*
X125227045Y-94158698D01*
X125186827Y-94162658D01*
X125146609Y-94158698D01*
X125107939Y-94146967D01*
X125072300Y-94127917D01*
X125036294Y-94098368D01*
X124996444Y-94058518D01*
X124996438Y-94058513D01*
X124615661Y-93677736D01*
X124615656Y-93677730D01*
X124575806Y-93637880D01*
X124546257Y-93601874D01*
X124527207Y-93566235D01*
X124515476Y-93527565D01*
X124511516Y-93487347D01*
X124515476Y-93447129D01*
X124527207Y-93408459D01*
X124546257Y-93372820D01*
X124575806Y-93336814D01*
X124615656Y-93296964D01*
X124615661Y-93296958D01*
X125296958Y-92615661D01*
X125296964Y-92615656D01*
X125336814Y-92575806D01*
X125372820Y-92546257D01*
X125408459Y-92527207D01*
X125447129Y-92515476D01*
X125487347Y-92511516D01*
X125527565Y-92515476D01*
X125527565Y-92515476D01*
G37*
G36*
X132527565Y-92515476D02*
G01*
X132566235Y-92527207D01*
X132601874Y-92546257D01*
X132637880Y-92575806D01*
X132677730Y-92615656D01*
X132677736Y-92615661D01*
X133058513Y-92996438D01*
X133058518Y-92996444D01*
X133098368Y-93036294D01*
X133127917Y-93072300D01*
X133146967Y-93107939D01*
X133158698Y-93146609D01*
X133162658Y-93186827D01*
X133158698Y-93227045D01*
X133146967Y-93265715D01*
X133127917Y-93301354D01*
X133098368Y-93337360D01*
X133058518Y-93377210D01*
X133058513Y-93377216D01*
X132377216Y-94058513D01*
X132377210Y-94058518D01*
X132337360Y-94098368D01*
X132301354Y-94127917D01*
X132265715Y-94146967D01*
X132227045Y-94158698D01*
X132186827Y-94162658D01*
X132146609Y-94158698D01*
X132107939Y-94146967D01*
X132072300Y-94127917D01*
X132036294Y-94098368D01*
X131996444Y-94058518D01*
X131996438Y-94058513D01*
X131615661Y-93677736D01*
X131615656Y-93677730D01*
X131575806Y-93637880D01*
X131546257Y-93601874D01*
X131527207Y-93566235D01*
X131515476Y-93527565D01*
X131511516Y-93487347D01*
X131515476Y-93447129D01*
X131527207Y-93408459D01*
X131546257Y-93372820D01*
X131575806Y-93336814D01*
X131615656Y-93296964D01*
X131615661Y-93296958D01*
X132296958Y-92615661D01*
X132296964Y-92615656D01*
X132336814Y-92575806D01*
X132372820Y-92546257D01*
X132408459Y-92527207D01*
X132447129Y-92515476D01*
X132487347Y-92511516D01*
X132527565Y-92515476D01*
X132527565Y-92515476D01*
G37*
G36*
X112853391Y-86841302D02*
G01*
X112892061Y-86853033D01*
X112927700Y-86872083D01*
X112963706Y-86901632D01*
X113003556Y-86941482D01*
X113003562Y-86941487D01*
X113384339Y-87322264D01*
X113384344Y-87322270D01*
X113424194Y-87362120D01*
X113453743Y-87398126D01*
X113472793Y-87433765D01*
X113484524Y-87472435D01*
X113488484Y-87512653D01*
X113484524Y-87552871D01*
X113472793Y-87591541D01*
X113453743Y-87627180D01*
X113424194Y-87663186D01*
X113384344Y-87703036D01*
X113384339Y-87703042D01*
X112703042Y-88384339D01*
X112703036Y-88384344D01*
X112663186Y-88424194D01*
X112627180Y-88453743D01*
X112591541Y-88472793D01*
X112552871Y-88484524D01*
X112512653Y-88488484D01*
X112472435Y-88484524D01*
X112433765Y-88472793D01*
X112398126Y-88453743D01*
X112362120Y-88424194D01*
X112322270Y-88384344D01*
X112322264Y-88384339D01*
X111941487Y-88003562D01*
X111941482Y-88003556D01*
X111901632Y-87963706D01*
X111872083Y-87927700D01*
X111853033Y-87892061D01*
X111841302Y-87853391D01*
X111837342Y-87813173D01*
X111841302Y-87772955D01*
X111853033Y-87734285D01*
X111872083Y-87698646D01*
X111901632Y-87662640D01*
X111941482Y-87622790D01*
X111941487Y-87622784D01*
X112622784Y-86941487D01*
X112622790Y-86941482D01*
X112662640Y-86901632D01*
X112698646Y-86872083D01*
X112734285Y-86853033D01*
X112772955Y-86841302D01*
X112813173Y-86837342D01*
X112853391Y-86841302D01*
X112853391Y-86841302D01*
G37*
G36*
X133853391Y-86841302D02*
G01*
X133892061Y-86853033D01*
X133927700Y-86872083D01*
X133963706Y-86901632D01*
X134003556Y-86941482D01*
X134003562Y-86941487D01*
X134384339Y-87322264D01*
X134384344Y-87322270D01*
X134424194Y-87362120D01*
X134453743Y-87398126D01*
X134472793Y-87433765D01*
X134484524Y-87472435D01*
X134488484Y-87512653D01*
X134484524Y-87552871D01*
X134472793Y-87591541D01*
X134453743Y-87627180D01*
X134424194Y-87663186D01*
X134384344Y-87703036D01*
X134384339Y-87703042D01*
X133703042Y-88384339D01*
X133703036Y-88384344D01*
X133663186Y-88424194D01*
X133627180Y-88453743D01*
X133591541Y-88472793D01*
X133552871Y-88484524D01*
X133512653Y-88488484D01*
X133472435Y-88484524D01*
X133433765Y-88472793D01*
X133398126Y-88453743D01*
X133362120Y-88424194D01*
X133322270Y-88384344D01*
X133322264Y-88384339D01*
X132941487Y-88003562D01*
X132941482Y-88003556D01*
X132901632Y-87963706D01*
X132872083Y-87927700D01*
X132853033Y-87892061D01*
X132841302Y-87853391D01*
X132837342Y-87813173D01*
X132841302Y-87772955D01*
X132853033Y-87734285D01*
X132872083Y-87698646D01*
X132901632Y-87662640D01*
X132941482Y-87622790D01*
X132941487Y-87622784D01*
X133622784Y-86941487D01*
X133622790Y-86941482D01*
X133662640Y-86901632D01*
X133698646Y-86872083D01*
X133734285Y-86853033D01*
X133772955Y-86841302D01*
X133813173Y-86837342D01*
X133853391Y-86841302D01*
X133853391Y-86841302D01*
G37*
G36*
X126853391Y-86841302D02*
G01*
X126892061Y-86853033D01*
X126927700Y-86872083D01*
X126963706Y-86901632D01*
X127003556Y-86941482D01*
X127003562Y-86941487D01*
X127384339Y-87322264D01*
X127384344Y-87322270D01*
X127424194Y-87362120D01*
X127453743Y-87398126D01*
X127472793Y-87433765D01*
X127484524Y-87472435D01*
X127488484Y-87512653D01*
X127484524Y-87552871D01*
X127472793Y-87591541D01*
X127453743Y-87627180D01*
X127424194Y-87663186D01*
X127384344Y-87703036D01*
X127384339Y-87703042D01*
X126703042Y-88384339D01*
X126703036Y-88384344D01*
X126663186Y-88424194D01*
X126627180Y-88453743D01*
X126591541Y-88472793D01*
X126552871Y-88484524D01*
X126512653Y-88488484D01*
X126472435Y-88484524D01*
X126433765Y-88472793D01*
X126398126Y-88453743D01*
X126362120Y-88424194D01*
X126322270Y-88384344D01*
X126322264Y-88384339D01*
X125941487Y-88003562D01*
X125941482Y-88003556D01*
X125901632Y-87963706D01*
X125872083Y-87927700D01*
X125853033Y-87892061D01*
X125841302Y-87853391D01*
X125837342Y-87813173D01*
X125841302Y-87772955D01*
X125853033Y-87734285D01*
X125872083Y-87698646D01*
X125901632Y-87662640D01*
X125941482Y-87622790D01*
X125941487Y-87622784D01*
X126622784Y-86941487D01*
X126622790Y-86941482D01*
X126662640Y-86901632D01*
X126698646Y-86872083D01*
X126734285Y-86853033D01*
X126772955Y-86841302D01*
X126813173Y-86837342D01*
X126853391Y-86841302D01*
X126853391Y-86841302D01*
G37*
G36*
X119853391Y-86841302D02*
G01*
X119892061Y-86853033D01*
X119927700Y-86872083D01*
X119963706Y-86901632D01*
X120003556Y-86941482D01*
X120003562Y-86941487D01*
X120384339Y-87322264D01*
X120384344Y-87322270D01*
X120424194Y-87362120D01*
X120453743Y-87398126D01*
X120472793Y-87433765D01*
X120484524Y-87472435D01*
X120488484Y-87512653D01*
X120484524Y-87552871D01*
X120472793Y-87591541D01*
X120453743Y-87627180D01*
X120424194Y-87663186D01*
X120384344Y-87703036D01*
X120384339Y-87703042D01*
X119703042Y-88384339D01*
X119703036Y-88384344D01*
X119663186Y-88424194D01*
X119627180Y-88453743D01*
X119591541Y-88472793D01*
X119552871Y-88484524D01*
X119512653Y-88488484D01*
X119472435Y-88484524D01*
X119433765Y-88472793D01*
X119398126Y-88453743D01*
X119362120Y-88424194D01*
X119322270Y-88384344D01*
X119322264Y-88384339D01*
X118941487Y-88003562D01*
X118941482Y-88003556D01*
X118901632Y-87963706D01*
X118872083Y-87927700D01*
X118853033Y-87892061D01*
X118841302Y-87853391D01*
X118837342Y-87813173D01*
X118841302Y-87772955D01*
X118853033Y-87734285D01*
X118872083Y-87698646D01*
X118901632Y-87662640D01*
X118941482Y-87622790D01*
X118941487Y-87622784D01*
X119622784Y-86941487D01*
X119622790Y-86941482D01*
X119662640Y-86901632D01*
X119698646Y-86872083D01*
X119734285Y-86853033D01*
X119772955Y-86841302D01*
X119813173Y-86837342D01*
X119853391Y-86841302D01*
X119853391Y-86841302D01*
G37*
G36*
X111527565Y-85515476D02*
G01*
X111566235Y-85527207D01*
X111601874Y-85546257D01*
X111637880Y-85575806D01*
X111677730Y-85615656D01*
X111677736Y-85615661D01*
X112058513Y-85996438D01*
X112058518Y-85996444D01*
X112098368Y-86036294D01*
X112127917Y-86072300D01*
X112146967Y-86107939D01*
X112158698Y-86146609D01*
X112162658Y-86186827D01*
X112158698Y-86227045D01*
X112146967Y-86265715D01*
X112127917Y-86301354D01*
X112098368Y-86337360D01*
X112058518Y-86377210D01*
X112058513Y-86377216D01*
X111377216Y-87058513D01*
X111377210Y-87058518D01*
X111337360Y-87098368D01*
X111301354Y-87127917D01*
X111265715Y-87146967D01*
X111227045Y-87158698D01*
X111186827Y-87162658D01*
X111146609Y-87158698D01*
X111107939Y-87146967D01*
X111072300Y-87127917D01*
X111036294Y-87098368D01*
X110996444Y-87058518D01*
X110996438Y-87058513D01*
X110615661Y-86677736D01*
X110615656Y-86677730D01*
X110575806Y-86637880D01*
X110546257Y-86601874D01*
X110527207Y-86566235D01*
X110515476Y-86527565D01*
X110511516Y-86487347D01*
X110515476Y-86447129D01*
X110527207Y-86408459D01*
X110546257Y-86372820D01*
X110575806Y-86336814D01*
X110615656Y-86296964D01*
X110615661Y-86296958D01*
X111296958Y-85615661D01*
X111296964Y-85615656D01*
X111336814Y-85575806D01*
X111372820Y-85546257D01*
X111408459Y-85527207D01*
X111447129Y-85515476D01*
X111487347Y-85511516D01*
X111527565Y-85515476D01*
X111527565Y-85515476D01*
G37*
G36*
X132527565Y-85515476D02*
G01*
X132566235Y-85527207D01*
X132601874Y-85546257D01*
X132637880Y-85575806D01*
X132677730Y-85615656D01*
X132677736Y-85615661D01*
X133058513Y-85996438D01*
X133058518Y-85996444D01*
X133098368Y-86036294D01*
X133127917Y-86072300D01*
X133146967Y-86107939D01*
X133158698Y-86146609D01*
X133162658Y-86186827D01*
X133158698Y-86227045D01*
X133146967Y-86265715D01*
X133127917Y-86301354D01*
X133098368Y-86337360D01*
X133058518Y-86377210D01*
X133058513Y-86377216D01*
X132377216Y-87058513D01*
X132377210Y-87058518D01*
X132337360Y-87098368D01*
X132301354Y-87127917D01*
X132265715Y-87146967D01*
X132227045Y-87158698D01*
X132186827Y-87162658D01*
X132146609Y-87158698D01*
X132107939Y-87146967D01*
X132072300Y-87127917D01*
X132036294Y-87098368D01*
X131996444Y-87058518D01*
X131996438Y-87058513D01*
X131615661Y-86677736D01*
X131615656Y-86677730D01*
X131575806Y-86637880D01*
X131546257Y-86601874D01*
X131527207Y-86566235D01*
X131515476Y-86527565D01*
X131511516Y-86487347D01*
X131515476Y-86447129D01*
X131527207Y-86408459D01*
X131546257Y-86372820D01*
X131575806Y-86336814D01*
X131615656Y-86296964D01*
X131615661Y-86296958D01*
X132296958Y-85615661D01*
X132296964Y-85615656D01*
X132336814Y-85575806D01*
X132372820Y-85546257D01*
X132408459Y-85527207D01*
X132447129Y-85515476D01*
X132487347Y-85511516D01*
X132527565Y-85515476D01*
X132527565Y-85515476D01*
G37*
G36*
X125527565Y-85515476D02*
G01*
X125566235Y-85527207D01*
X125601874Y-85546257D01*
X125637880Y-85575806D01*
X125677730Y-85615656D01*
X125677736Y-85615661D01*
X126058513Y-85996438D01*
X126058518Y-85996444D01*
X126098368Y-86036294D01*
X126127917Y-86072300D01*
X126146967Y-86107939D01*
X126158698Y-86146609D01*
X126162658Y-86186827D01*
X126158698Y-86227045D01*
X126146967Y-86265715D01*
X126127917Y-86301354D01*
X126098368Y-86337360D01*
X126058518Y-86377210D01*
X126058513Y-86377216D01*
X125377216Y-87058513D01*
X125377210Y-87058518D01*
X125337360Y-87098368D01*
X125301354Y-87127917D01*
X125265715Y-87146967D01*
X125227045Y-87158698D01*
X125186827Y-87162658D01*
X125146609Y-87158698D01*
X125107939Y-87146967D01*
X125072300Y-87127917D01*
X125036294Y-87098368D01*
X124996444Y-87058518D01*
X124996438Y-87058513D01*
X124615661Y-86677736D01*
X124615656Y-86677730D01*
X124575806Y-86637880D01*
X124546257Y-86601874D01*
X124527207Y-86566235D01*
X124515476Y-86527565D01*
X124511516Y-86487347D01*
X124515476Y-86447129D01*
X124527207Y-86408459D01*
X124546257Y-86372820D01*
X124575806Y-86336814D01*
X124615656Y-86296964D01*
X124615661Y-86296958D01*
X125296958Y-85615661D01*
X125296964Y-85615656D01*
X125336814Y-85575806D01*
X125372820Y-85546257D01*
X125408459Y-85527207D01*
X125447129Y-85515476D01*
X125487347Y-85511516D01*
X125527565Y-85515476D01*
X125527565Y-85515476D01*
G37*
G36*
X118527565Y-85515476D02*
G01*
X118566235Y-85527207D01*
X118601874Y-85546257D01*
X118637880Y-85575806D01*
X118677730Y-85615656D01*
X118677736Y-85615661D01*
X119058513Y-85996438D01*
X119058518Y-85996444D01*
X119098368Y-86036294D01*
X119127917Y-86072300D01*
X119146967Y-86107939D01*
X119158698Y-86146609D01*
X119162658Y-86186827D01*
X119158698Y-86227045D01*
X119146967Y-86265715D01*
X119127917Y-86301354D01*
X119098368Y-86337360D01*
X119058518Y-86377210D01*
X119058513Y-86377216D01*
X118377216Y-87058513D01*
X118377210Y-87058518D01*
X118337360Y-87098368D01*
X118301354Y-87127917D01*
X118265715Y-87146967D01*
X118227045Y-87158698D01*
X118186827Y-87162658D01*
X118146609Y-87158698D01*
X118107939Y-87146967D01*
X118072300Y-87127917D01*
X118036294Y-87098368D01*
X117996444Y-87058518D01*
X117996438Y-87058513D01*
X117615661Y-86677736D01*
X117615656Y-86677730D01*
X117575806Y-86637880D01*
X117546257Y-86601874D01*
X117527207Y-86566235D01*
X117515476Y-86527565D01*
X117511516Y-86487347D01*
X117515476Y-86447129D01*
X117527207Y-86408459D01*
X117546257Y-86372820D01*
X117575806Y-86336814D01*
X117615656Y-86296964D01*
X117615661Y-86296958D01*
X118296958Y-85615661D01*
X118296964Y-85615656D01*
X118336814Y-85575806D01*
X118372820Y-85546257D01*
X118408459Y-85527207D01*
X118447129Y-85515476D01*
X118487347Y-85511516D01*
X118527565Y-85515476D01*
X118527565Y-85515476D01*
G37*
G36*
X126853391Y-79841302D02*
G01*
X126892061Y-79853033D01*
X126927700Y-79872083D01*
X126963706Y-79901632D01*
X127003556Y-79941482D01*
X127003562Y-79941487D01*
X127384339Y-80322264D01*
X127384344Y-80322270D01*
X127424194Y-80362120D01*
X127453743Y-80398126D01*
X127472793Y-80433765D01*
X127484524Y-80472435D01*
X127488484Y-80512653D01*
X127484524Y-80552871D01*
X127472793Y-80591541D01*
X127453743Y-80627180D01*
X127424194Y-80663186D01*
X127384344Y-80703036D01*
X127384339Y-80703042D01*
X126703042Y-81384339D01*
X126703036Y-81384344D01*
X126663186Y-81424194D01*
X126627180Y-81453743D01*
X126591541Y-81472793D01*
X126552871Y-81484524D01*
X126512653Y-81488484D01*
X126472435Y-81484524D01*
X126433765Y-81472793D01*
X126398126Y-81453743D01*
X126362120Y-81424194D01*
X126322270Y-81384344D01*
X126322264Y-81384339D01*
X125941487Y-81003562D01*
X125941482Y-81003556D01*
X125901632Y-80963706D01*
X125872083Y-80927700D01*
X125853033Y-80892061D01*
X125841302Y-80853391D01*
X125837342Y-80813173D01*
X125841302Y-80772955D01*
X125853033Y-80734285D01*
X125872083Y-80698646D01*
X125901632Y-80662640D01*
X125941482Y-80622790D01*
X125941487Y-80622784D01*
X126622784Y-79941487D01*
X126622790Y-79941482D01*
X126662640Y-79901632D01*
X126698646Y-79872083D01*
X126734285Y-79853033D01*
X126772955Y-79841302D01*
X126813173Y-79837342D01*
X126853391Y-79841302D01*
X126853391Y-79841302D01*
G37*
G36*
X119853391Y-79841302D02*
G01*
X119892061Y-79853033D01*
X119927700Y-79872083D01*
X119963706Y-79901632D01*
X120003556Y-79941482D01*
X120003562Y-79941487D01*
X120384339Y-80322264D01*
X120384344Y-80322270D01*
X120424194Y-80362120D01*
X120453743Y-80398126D01*
X120472793Y-80433765D01*
X120484524Y-80472435D01*
X120488484Y-80512653D01*
X120484524Y-80552871D01*
X120472793Y-80591541D01*
X120453743Y-80627180D01*
X120424194Y-80663186D01*
X120384344Y-80703036D01*
X120384339Y-80703042D01*
X119703042Y-81384339D01*
X119703036Y-81384344D01*
X119663186Y-81424194D01*
X119627180Y-81453743D01*
X119591541Y-81472793D01*
X119552871Y-81484524D01*
X119512653Y-81488484D01*
X119472435Y-81484524D01*
X119433765Y-81472793D01*
X119398126Y-81453743D01*
X119362120Y-81424194D01*
X119322270Y-81384344D01*
X119322264Y-81384339D01*
X118941487Y-81003562D01*
X118941482Y-81003556D01*
X118901632Y-80963706D01*
X118872083Y-80927700D01*
X118853033Y-80892061D01*
X118841302Y-80853391D01*
X118837342Y-80813173D01*
X118841302Y-80772955D01*
X118853033Y-80734285D01*
X118872083Y-80698646D01*
X118901632Y-80662640D01*
X118941482Y-80622790D01*
X118941487Y-80622784D01*
X119622784Y-79941487D01*
X119622790Y-79941482D01*
X119662640Y-79901632D01*
X119698646Y-79872083D01*
X119734285Y-79853033D01*
X119772955Y-79841302D01*
X119813173Y-79837342D01*
X119853391Y-79841302D01*
X119853391Y-79841302D01*
G37*
G36*
X112853391Y-79841302D02*
G01*
X112892061Y-79853033D01*
X112927700Y-79872083D01*
X112963706Y-79901632D01*
X113003556Y-79941482D01*
X113003562Y-79941487D01*
X113384339Y-80322264D01*
X113384344Y-80322270D01*
X113424194Y-80362120D01*
X113453743Y-80398126D01*
X113472793Y-80433765D01*
X113484524Y-80472435D01*
X113488484Y-80512653D01*
X113484524Y-80552871D01*
X113472793Y-80591541D01*
X113453743Y-80627180D01*
X113424194Y-80663186D01*
X113384344Y-80703036D01*
X113384339Y-80703042D01*
X112703042Y-81384339D01*
X112703036Y-81384344D01*
X112663186Y-81424194D01*
X112627180Y-81453743D01*
X112591541Y-81472793D01*
X112552871Y-81484524D01*
X112512653Y-81488484D01*
X112472435Y-81484524D01*
X112433765Y-81472793D01*
X112398126Y-81453743D01*
X112362120Y-81424194D01*
X112322270Y-81384344D01*
X112322264Y-81384339D01*
X111941487Y-81003562D01*
X111941482Y-81003556D01*
X111901632Y-80963706D01*
X111872083Y-80927700D01*
X111853033Y-80892061D01*
X111841302Y-80853391D01*
X111837342Y-80813173D01*
X111841302Y-80772955D01*
X111853033Y-80734285D01*
X111872083Y-80698646D01*
X111901632Y-80662640D01*
X111941482Y-80622790D01*
X111941487Y-80622784D01*
X112622784Y-79941487D01*
X112622790Y-79941482D01*
X112662640Y-79901632D01*
X112698646Y-79872083D01*
X112734285Y-79853033D01*
X112772955Y-79841302D01*
X112813173Y-79837342D01*
X112853391Y-79841302D01*
X112853391Y-79841302D01*
G37*
G36*
X133853391Y-79841302D02*
G01*
X133892061Y-79853033D01*
X133927700Y-79872083D01*
X133963706Y-79901632D01*
X134003556Y-79941482D01*
X134003562Y-79941487D01*
X134384339Y-80322264D01*
X134384344Y-80322270D01*
X134424194Y-80362120D01*
X134453743Y-80398126D01*
X134472793Y-80433765D01*
X134484524Y-80472435D01*
X134488484Y-80512653D01*
X134484524Y-80552871D01*
X134472793Y-80591541D01*
X134453743Y-80627180D01*
X134424194Y-80663186D01*
X134384344Y-80703036D01*
X134384339Y-80703042D01*
X133703042Y-81384339D01*
X133703036Y-81384344D01*
X133663186Y-81424194D01*
X133627180Y-81453743D01*
X133591541Y-81472793D01*
X133552871Y-81484524D01*
X133512653Y-81488484D01*
X133472435Y-81484524D01*
X133433765Y-81472793D01*
X133398126Y-81453743D01*
X133362120Y-81424194D01*
X133322270Y-81384344D01*
X133322264Y-81384339D01*
X132941487Y-81003562D01*
X132941482Y-81003556D01*
X132901632Y-80963706D01*
X132872083Y-80927700D01*
X132853033Y-80892061D01*
X132841302Y-80853391D01*
X132837342Y-80813173D01*
X132841302Y-80772955D01*
X132853033Y-80734285D01*
X132872083Y-80698646D01*
X132901632Y-80662640D01*
X132941482Y-80622790D01*
X132941487Y-80622784D01*
X133622784Y-79941487D01*
X133622790Y-79941482D01*
X133662640Y-79901632D01*
X133698646Y-79872083D01*
X133734285Y-79853033D01*
X133772955Y-79841302D01*
X133813173Y-79837342D01*
X133853391Y-79841302D01*
X133853391Y-79841302D01*
G37*
G36*
X132527565Y-78515476D02*
G01*
X132566235Y-78527207D01*
X132601874Y-78546257D01*
X132637880Y-78575806D01*
X132677730Y-78615656D01*
X132677736Y-78615661D01*
X133058513Y-78996438D01*
X133058518Y-78996444D01*
X133098368Y-79036294D01*
X133127917Y-79072300D01*
X133146967Y-79107939D01*
X133158698Y-79146609D01*
X133162658Y-79186827D01*
X133158698Y-79227045D01*
X133146967Y-79265715D01*
X133127917Y-79301354D01*
X133098368Y-79337360D01*
X133058518Y-79377210D01*
X133058513Y-79377216D01*
X132377216Y-80058513D01*
X132377210Y-80058518D01*
X132337360Y-80098368D01*
X132301354Y-80127917D01*
X132265715Y-80146967D01*
X132227045Y-80158698D01*
X132186827Y-80162658D01*
X132146609Y-80158698D01*
X132107939Y-80146967D01*
X132072300Y-80127917D01*
X132036294Y-80098368D01*
X131996444Y-80058518D01*
X131996438Y-80058513D01*
X131615661Y-79677736D01*
X131615656Y-79677730D01*
X131575806Y-79637880D01*
X131546257Y-79601874D01*
X131527207Y-79566235D01*
X131515476Y-79527565D01*
X131511516Y-79487347D01*
X131515476Y-79447129D01*
X131527207Y-79408459D01*
X131546257Y-79372820D01*
X131575806Y-79336814D01*
X131615656Y-79296964D01*
X131615661Y-79296958D01*
X132296958Y-78615661D01*
X132296964Y-78615656D01*
X132336814Y-78575806D01*
X132372820Y-78546257D01*
X132408459Y-78527207D01*
X132447129Y-78515476D01*
X132487347Y-78511516D01*
X132527565Y-78515476D01*
X132527565Y-78515476D01*
G37*
G36*
X125527565Y-78515476D02*
G01*
X125566235Y-78527207D01*
X125601874Y-78546257D01*
X125637880Y-78575806D01*
X125677730Y-78615656D01*
X125677736Y-78615661D01*
X126058513Y-78996438D01*
X126058518Y-78996444D01*
X126098368Y-79036294D01*
X126127917Y-79072300D01*
X126146967Y-79107939D01*
X126158698Y-79146609D01*
X126162658Y-79186827D01*
X126158698Y-79227045D01*
X126146967Y-79265715D01*
X126127917Y-79301354D01*
X126098368Y-79337360D01*
X126058518Y-79377210D01*
X126058513Y-79377216D01*
X125377216Y-80058513D01*
X125377210Y-80058518D01*
X125337360Y-80098368D01*
X125301354Y-80127917D01*
X125265715Y-80146967D01*
X125227045Y-80158698D01*
X125186827Y-80162658D01*
X125146609Y-80158698D01*
X125107939Y-80146967D01*
X125072300Y-80127917D01*
X125036294Y-80098368D01*
X124996444Y-80058518D01*
X124996438Y-80058513D01*
X124615661Y-79677736D01*
X124615656Y-79677730D01*
X124575806Y-79637880D01*
X124546257Y-79601874D01*
X124527207Y-79566235D01*
X124515476Y-79527565D01*
X124511516Y-79487347D01*
X124515476Y-79447129D01*
X124527207Y-79408459D01*
X124546257Y-79372820D01*
X124575806Y-79336814D01*
X124615656Y-79296964D01*
X124615661Y-79296958D01*
X125296958Y-78615661D01*
X125296964Y-78615656D01*
X125336814Y-78575806D01*
X125372820Y-78546257D01*
X125408459Y-78527207D01*
X125447129Y-78515476D01*
X125487347Y-78511516D01*
X125527565Y-78515476D01*
X125527565Y-78515476D01*
G37*
G36*
X118527565Y-78515476D02*
G01*
X118566235Y-78527207D01*
X118601874Y-78546257D01*
X118637880Y-78575806D01*
X118677730Y-78615656D01*
X118677736Y-78615661D01*
X119058513Y-78996438D01*
X119058518Y-78996444D01*
X119098368Y-79036294D01*
X119127917Y-79072300D01*
X119146967Y-79107939D01*
X119158698Y-79146609D01*
X119162658Y-79186827D01*
X119158698Y-79227045D01*
X119146967Y-79265715D01*
X119127917Y-79301354D01*
X119098368Y-79337360D01*
X119058518Y-79377210D01*
X119058513Y-79377216D01*
X118377216Y-80058513D01*
X118377210Y-80058518D01*
X118337360Y-80098368D01*
X118301354Y-80127917D01*
X118265715Y-80146967D01*
X118227045Y-80158698D01*
X118186827Y-80162658D01*
X118146609Y-80158698D01*
X118107939Y-80146967D01*
X118072300Y-80127917D01*
X118036294Y-80098368D01*
X117996444Y-80058518D01*
X117996438Y-80058513D01*
X117615661Y-79677736D01*
X117615656Y-79677730D01*
X117575806Y-79637880D01*
X117546257Y-79601874D01*
X117527207Y-79566235D01*
X117515476Y-79527565D01*
X117511516Y-79487347D01*
X117515476Y-79447129D01*
X117527207Y-79408459D01*
X117546257Y-79372820D01*
X117575806Y-79336814D01*
X117615656Y-79296964D01*
X117615661Y-79296958D01*
X118296958Y-78615661D01*
X118296964Y-78615656D01*
X118336814Y-78575806D01*
X118372820Y-78546257D01*
X118408459Y-78527207D01*
X118447129Y-78515476D01*
X118487347Y-78511516D01*
X118527565Y-78515476D01*
X118527565Y-78515476D01*
G37*
G36*
X111527565Y-78515476D02*
G01*
X111566235Y-78527207D01*
X111601874Y-78546257D01*
X111637880Y-78575806D01*
X111677730Y-78615656D01*
X111677736Y-78615661D01*
X112058513Y-78996438D01*
X112058518Y-78996444D01*
X112098368Y-79036294D01*
X112127917Y-79072300D01*
X112146967Y-79107939D01*
X112158698Y-79146609D01*
X112162658Y-79186827D01*
X112158698Y-79227045D01*
X112146967Y-79265715D01*
X112127917Y-79301354D01*
X112098368Y-79337360D01*
X112058518Y-79377210D01*
X112058513Y-79377216D01*
X111377216Y-80058513D01*
X111377210Y-80058518D01*
X111337360Y-80098368D01*
X111301354Y-80127917D01*
X111265715Y-80146967D01*
X111227045Y-80158698D01*
X111186827Y-80162658D01*
X111146609Y-80158698D01*
X111107939Y-80146967D01*
X111072300Y-80127917D01*
X111036294Y-80098368D01*
X110996444Y-80058518D01*
X110996438Y-80058513D01*
X110615661Y-79677736D01*
X110615656Y-79677730D01*
X110575806Y-79637880D01*
X110546257Y-79601874D01*
X110527207Y-79566235D01*
X110515476Y-79527565D01*
X110511516Y-79487347D01*
X110515476Y-79447129D01*
X110527207Y-79408459D01*
X110546257Y-79372820D01*
X110575806Y-79336814D01*
X110615656Y-79296964D01*
X110615661Y-79296958D01*
X111296958Y-78615661D01*
X111296964Y-78615656D01*
X111336814Y-78575806D01*
X111372820Y-78546257D01*
X111408459Y-78527207D01*
X111447129Y-78515476D01*
X111487347Y-78511516D01*
X111527565Y-78515476D01*
X111527565Y-78515476D01*
G37*
G36*
X112853391Y-72841302D02*
G01*
X112892061Y-72853033D01*
X112927700Y-72872083D01*
X112963706Y-72901632D01*
X113003556Y-72941482D01*
X113003562Y-72941487D01*
X113384339Y-73322264D01*
X113384344Y-73322270D01*
X113424194Y-73362120D01*
X113453743Y-73398126D01*
X113472793Y-73433765D01*
X113484524Y-73472435D01*
X113488484Y-73512653D01*
X113484524Y-73552871D01*
X113472793Y-73591541D01*
X113453743Y-73627180D01*
X113424194Y-73663186D01*
X113384344Y-73703036D01*
X113384339Y-73703042D01*
X112703042Y-74384339D01*
X112703036Y-74384344D01*
X112663186Y-74424194D01*
X112627180Y-74453743D01*
X112591541Y-74472793D01*
X112552871Y-74484524D01*
X112512653Y-74488484D01*
X112472435Y-74484524D01*
X112433765Y-74472793D01*
X112398126Y-74453743D01*
X112362120Y-74424194D01*
X112322270Y-74384344D01*
X112322264Y-74384339D01*
X111941487Y-74003562D01*
X111941482Y-74003556D01*
X111901632Y-73963706D01*
X111872083Y-73927700D01*
X111853033Y-73892061D01*
X111841302Y-73853391D01*
X111837342Y-73813173D01*
X111841302Y-73772955D01*
X111853033Y-73734285D01*
X111872083Y-73698646D01*
X111901632Y-73662640D01*
X111941482Y-73622790D01*
X111941487Y-73622784D01*
X112622784Y-72941487D01*
X112622790Y-72941482D01*
X112662640Y-72901632D01*
X112698646Y-72872083D01*
X112734285Y-72853033D01*
X112772955Y-72841302D01*
X112813173Y-72837342D01*
X112853391Y-72841302D01*
X112853391Y-72841302D01*
G37*
G36*
X119853391Y-72841302D02*
G01*
X119892061Y-72853033D01*
X119927700Y-72872083D01*
X119963706Y-72901632D01*
X120003556Y-72941482D01*
X120003562Y-72941487D01*
X120384339Y-73322264D01*
X120384344Y-73322270D01*
X120424194Y-73362120D01*
X120453743Y-73398126D01*
X120472793Y-73433765D01*
X120484524Y-73472435D01*
X120488484Y-73512653D01*
X120484524Y-73552871D01*
X120472793Y-73591541D01*
X120453743Y-73627180D01*
X120424194Y-73663186D01*
X120384344Y-73703036D01*
X120384339Y-73703042D01*
X119703042Y-74384339D01*
X119703036Y-74384344D01*
X119663186Y-74424194D01*
X119627180Y-74453743D01*
X119591541Y-74472793D01*
X119552871Y-74484524D01*
X119512653Y-74488484D01*
X119472435Y-74484524D01*
X119433765Y-74472793D01*
X119398126Y-74453743D01*
X119362120Y-74424194D01*
X119322270Y-74384344D01*
X119322264Y-74384339D01*
X118941487Y-74003562D01*
X118941482Y-74003556D01*
X118901632Y-73963706D01*
X118872083Y-73927700D01*
X118853033Y-73892061D01*
X118841302Y-73853391D01*
X118837342Y-73813173D01*
X118841302Y-73772955D01*
X118853033Y-73734285D01*
X118872083Y-73698646D01*
X118901632Y-73662640D01*
X118941482Y-73622790D01*
X118941487Y-73622784D01*
X119622784Y-72941487D01*
X119622790Y-72941482D01*
X119662640Y-72901632D01*
X119698646Y-72872083D01*
X119734285Y-72853033D01*
X119772955Y-72841302D01*
X119813173Y-72837342D01*
X119853391Y-72841302D01*
X119853391Y-72841302D01*
G37*
G36*
X126853391Y-72841302D02*
G01*
X126892061Y-72853033D01*
X126927700Y-72872083D01*
X126963706Y-72901632D01*
X127003556Y-72941482D01*
X127003562Y-72941487D01*
X127384339Y-73322264D01*
X127384344Y-73322270D01*
X127424194Y-73362120D01*
X127453743Y-73398126D01*
X127472793Y-73433765D01*
X127484524Y-73472435D01*
X127488484Y-73512653D01*
X127484524Y-73552871D01*
X127472793Y-73591541D01*
X127453743Y-73627180D01*
X127424194Y-73663186D01*
X127384344Y-73703036D01*
X127384339Y-73703042D01*
X126703042Y-74384339D01*
X126703036Y-74384344D01*
X126663186Y-74424194D01*
X126627180Y-74453743D01*
X126591541Y-74472793D01*
X126552871Y-74484524D01*
X126512653Y-74488484D01*
X126472435Y-74484524D01*
X126433765Y-74472793D01*
X126398126Y-74453743D01*
X126362120Y-74424194D01*
X126322270Y-74384344D01*
X126322264Y-74384339D01*
X125941487Y-74003562D01*
X125941482Y-74003556D01*
X125901632Y-73963706D01*
X125872083Y-73927700D01*
X125853033Y-73892061D01*
X125841302Y-73853391D01*
X125837342Y-73813173D01*
X125841302Y-73772955D01*
X125853033Y-73734285D01*
X125872083Y-73698646D01*
X125901632Y-73662640D01*
X125941482Y-73622790D01*
X125941487Y-73622784D01*
X126622784Y-72941487D01*
X126622790Y-72941482D01*
X126662640Y-72901632D01*
X126698646Y-72872083D01*
X126734285Y-72853033D01*
X126772955Y-72841302D01*
X126813173Y-72837342D01*
X126853391Y-72841302D01*
X126853391Y-72841302D01*
G37*
G36*
X133853391Y-72841302D02*
G01*
X133892061Y-72853033D01*
X133927700Y-72872083D01*
X133963706Y-72901632D01*
X134003556Y-72941482D01*
X134003562Y-72941487D01*
X134384339Y-73322264D01*
X134384344Y-73322270D01*
X134424194Y-73362120D01*
X134453743Y-73398126D01*
X134472793Y-73433765D01*
X134484524Y-73472435D01*
X134488484Y-73512653D01*
X134484524Y-73552871D01*
X134472793Y-73591541D01*
X134453743Y-73627180D01*
X134424194Y-73663186D01*
X134384344Y-73703036D01*
X134384339Y-73703042D01*
X133703042Y-74384339D01*
X133703036Y-74384344D01*
X133663186Y-74424194D01*
X133627180Y-74453743D01*
X133591541Y-74472793D01*
X133552871Y-74484524D01*
X133512653Y-74488484D01*
X133472435Y-74484524D01*
X133433765Y-74472793D01*
X133398126Y-74453743D01*
X133362120Y-74424194D01*
X133322270Y-74384344D01*
X133322264Y-74384339D01*
X132941487Y-74003562D01*
X132941482Y-74003556D01*
X132901632Y-73963706D01*
X132872083Y-73927700D01*
X132853033Y-73892061D01*
X132841302Y-73853391D01*
X132837342Y-73813173D01*
X132841302Y-73772955D01*
X132853033Y-73734285D01*
X132872083Y-73698646D01*
X132901632Y-73662640D01*
X132941482Y-73622790D01*
X132941487Y-73622784D01*
X133622784Y-72941487D01*
X133622790Y-72941482D01*
X133662640Y-72901632D01*
X133698646Y-72872083D01*
X133734285Y-72853033D01*
X133772955Y-72841302D01*
X133813173Y-72837342D01*
X133853391Y-72841302D01*
X133853391Y-72841302D01*
G37*
G36*
X111527565Y-71515476D02*
G01*
X111566235Y-71527207D01*
X111601874Y-71546257D01*
X111637880Y-71575806D01*
X111677730Y-71615656D01*
X111677736Y-71615661D01*
X112058513Y-71996438D01*
X112058518Y-71996444D01*
X112098368Y-72036294D01*
X112127917Y-72072300D01*
X112146967Y-72107939D01*
X112158698Y-72146609D01*
X112162658Y-72186827D01*
X112158698Y-72227045D01*
X112146967Y-72265715D01*
X112127917Y-72301354D01*
X112098368Y-72337360D01*
X112058518Y-72377210D01*
X112058513Y-72377216D01*
X111377216Y-73058513D01*
X111377210Y-73058518D01*
X111337360Y-73098368D01*
X111301354Y-73127917D01*
X111265715Y-73146967D01*
X111227045Y-73158698D01*
X111186827Y-73162658D01*
X111146609Y-73158698D01*
X111107939Y-73146967D01*
X111072300Y-73127917D01*
X111036294Y-73098368D01*
X110996444Y-73058518D01*
X110996438Y-73058513D01*
X110615661Y-72677736D01*
X110615656Y-72677730D01*
X110575806Y-72637880D01*
X110546257Y-72601874D01*
X110527207Y-72566235D01*
X110515476Y-72527565D01*
X110511516Y-72487347D01*
X110515476Y-72447129D01*
X110527207Y-72408459D01*
X110546257Y-72372820D01*
X110575806Y-72336814D01*
X110615656Y-72296964D01*
X110615661Y-72296958D01*
X111296958Y-71615661D01*
X111296964Y-71615656D01*
X111336814Y-71575806D01*
X111372820Y-71546257D01*
X111408459Y-71527207D01*
X111447129Y-71515476D01*
X111487347Y-71511516D01*
X111527565Y-71515476D01*
X111527565Y-71515476D01*
G37*
G36*
X132527565Y-71515476D02*
G01*
X132566235Y-71527207D01*
X132601874Y-71546257D01*
X132637880Y-71575806D01*
X132677730Y-71615656D01*
X132677736Y-71615661D01*
X133058513Y-71996438D01*
X133058518Y-71996444D01*
X133098368Y-72036294D01*
X133127917Y-72072300D01*
X133146967Y-72107939D01*
X133158698Y-72146609D01*
X133162658Y-72186827D01*
X133158698Y-72227045D01*
X133146967Y-72265715D01*
X133127917Y-72301354D01*
X133098368Y-72337360D01*
X133058518Y-72377210D01*
X133058513Y-72377216D01*
X132377216Y-73058513D01*
X132377210Y-73058518D01*
X132337360Y-73098368D01*
X132301354Y-73127917D01*
X132265715Y-73146967D01*
X132227045Y-73158698D01*
X132186827Y-73162658D01*
X132146609Y-73158698D01*
X132107939Y-73146967D01*
X132072300Y-73127917D01*
X132036294Y-73098368D01*
X131996444Y-73058518D01*
X131996438Y-73058513D01*
X131615661Y-72677736D01*
X131615656Y-72677730D01*
X131575806Y-72637880D01*
X131546257Y-72601874D01*
X131527207Y-72566235D01*
X131515476Y-72527565D01*
X131511516Y-72487347D01*
X131515476Y-72447129D01*
X131527207Y-72408459D01*
X131546257Y-72372820D01*
X131575806Y-72336814D01*
X131615656Y-72296964D01*
X131615661Y-72296958D01*
X132296958Y-71615661D01*
X132296964Y-71615656D01*
X132336814Y-71575806D01*
X132372820Y-71546257D01*
X132408459Y-71527207D01*
X132447129Y-71515476D01*
X132487347Y-71511516D01*
X132527565Y-71515476D01*
X132527565Y-71515476D01*
G37*
G36*
X125527565Y-71515476D02*
G01*
X125566235Y-71527207D01*
X125601874Y-71546257D01*
X125637880Y-71575806D01*
X125677730Y-71615656D01*
X125677736Y-71615661D01*
X126058513Y-71996438D01*
X126058518Y-71996444D01*
X126098368Y-72036294D01*
X126127917Y-72072300D01*
X126146967Y-72107939D01*
X126158698Y-72146609D01*
X126162658Y-72186827D01*
X126158698Y-72227045D01*
X126146967Y-72265715D01*
X126127917Y-72301354D01*
X126098368Y-72337360D01*
X126058518Y-72377210D01*
X126058513Y-72377216D01*
X125377216Y-73058513D01*
X125377210Y-73058518D01*
X125337360Y-73098368D01*
X125301354Y-73127917D01*
X125265715Y-73146967D01*
X125227045Y-73158698D01*
X125186827Y-73162658D01*
X125146609Y-73158698D01*
X125107939Y-73146967D01*
X125072300Y-73127917D01*
X125036294Y-73098368D01*
X124996444Y-73058518D01*
X124996438Y-73058513D01*
X124615661Y-72677736D01*
X124615656Y-72677730D01*
X124575806Y-72637880D01*
X124546257Y-72601874D01*
X124527207Y-72566235D01*
X124515476Y-72527565D01*
X124511516Y-72487347D01*
X124515476Y-72447129D01*
X124527207Y-72408459D01*
X124546257Y-72372820D01*
X124575806Y-72336814D01*
X124615656Y-72296964D01*
X124615661Y-72296958D01*
X125296958Y-71615661D01*
X125296964Y-71615656D01*
X125336814Y-71575806D01*
X125372820Y-71546257D01*
X125408459Y-71527207D01*
X125447129Y-71515476D01*
X125487347Y-71511516D01*
X125527565Y-71515476D01*
X125527565Y-71515476D01*
G37*
G36*
X118527565Y-71515476D02*
G01*
X118566235Y-71527207D01*
X118601874Y-71546257D01*
X118637880Y-71575806D01*
X118677730Y-71615656D01*
X118677736Y-71615661D01*
X119058513Y-71996438D01*
X119058518Y-71996444D01*
X119098368Y-72036294D01*
X119127917Y-72072300D01*
X119146967Y-72107939D01*
X119158698Y-72146609D01*
X119162658Y-72186827D01*
X119158698Y-72227045D01*
X119146967Y-72265715D01*
X119127917Y-72301354D01*
X119098368Y-72337360D01*
X119058518Y-72377210D01*
X119058513Y-72377216D01*
X118377216Y-73058513D01*
X118377210Y-73058518D01*
X118337360Y-73098368D01*
X118301354Y-73127917D01*
X118265715Y-73146967D01*
X118227045Y-73158698D01*
X118186827Y-73162658D01*
X118146609Y-73158698D01*
X118107939Y-73146967D01*
X118072300Y-73127917D01*
X118036294Y-73098368D01*
X117996444Y-73058518D01*
X117996438Y-73058513D01*
X117615661Y-72677736D01*
X117615656Y-72677730D01*
X117575806Y-72637880D01*
X117546257Y-72601874D01*
X117527207Y-72566235D01*
X117515476Y-72527565D01*
X117511516Y-72487347D01*
X117515476Y-72447129D01*
X117527207Y-72408459D01*
X117546257Y-72372820D01*
X117575806Y-72336814D01*
X117615656Y-72296964D01*
X117615661Y-72296958D01*
X118296958Y-71615661D01*
X118296964Y-71615656D01*
X118336814Y-71575806D01*
X118372820Y-71546257D01*
X118408459Y-71527207D01*
X118447129Y-71515476D01*
X118487347Y-71511516D01*
X118527565Y-71515476D01*
X118527565Y-71515476D01*
G37*
G36*
X133853391Y-65841302D02*
G01*
X133892061Y-65853033D01*
X133927700Y-65872083D01*
X133963706Y-65901632D01*
X134003556Y-65941482D01*
X134003562Y-65941487D01*
X134384339Y-66322264D01*
X134384344Y-66322270D01*
X134424194Y-66362120D01*
X134453743Y-66398126D01*
X134472793Y-66433765D01*
X134484524Y-66472435D01*
X134488484Y-66512653D01*
X134484524Y-66552871D01*
X134472793Y-66591541D01*
X134453743Y-66627180D01*
X134424194Y-66663186D01*
X134384344Y-66703036D01*
X134384339Y-66703042D01*
X133703042Y-67384339D01*
X133703036Y-67384344D01*
X133663186Y-67424194D01*
X133627180Y-67453743D01*
X133591541Y-67472793D01*
X133552871Y-67484524D01*
X133512653Y-67488484D01*
X133472435Y-67484524D01*
X133433765Y-67472793D01*
X133398126Y-67453743D01*
X133362120Y-67424194D01*
X133322270Y-67384344D01*
X133322264Y-67384339D01*
X132941487Y-67003562D01*
X132941482Y-67003556D01*
X132901632Y-66963706D01*
X132872083Y-66927700D01*
X132853033Y-66892061D01*
X132841302Y-66853391D01*
X132837342Y-66813173D01*
X132841302Y-66772955D01*
X132853033Y-66734285D01*
X132872083Y-66698646D01*
X132901632Y-66662640D01*
X132941482Y-66622790D01*
X132941487Y-66622784D01*
X133622784Y-65941487D01*
X133622790Y-65941482D01*
X133662640Y-65901632D01*
X133698646Y-65872083D01*
X133734285Y-65853033D01*
X133772955Y-65841302D01*
X133813173Y-65837342D01*
X133853391Y-65841302D01*
X133853391Y-65841302D01*
G37*
G36*
X112853391Y-65841302D02*
G01*
X112892061Y-65853033D01*
X112927700Y-65872083D01*
X112963706Y-65901632D01*
X113003556Y-65941482D01*
X113003562Y-65941487D01*
X113384339Y-66322264D01*
X113384344Y-66322270D01*
X113424194Y-66362120D01*
X113453743Y-66398126D01*
X113472793Y-66433765D01*
X113484524Y-66472435D01*
X113488484Y-66512653D01*
X113484524Y-66552871D01*
X113472793Y-66591541D01*
X113453743Y-66627180D01*
X113424194Y-66663186D01*
X113384344Y-66703036D01*
X113384339Y-66703042D01*
X112703042Y-67384339D01*
X112703036Y-67384344D01*
X112663186Y-67424194D01*
X112627180Y-67453743D01*
X112591541Y-67472793D01*
X112552871Y-67484524D01*
X112512653Y-67488484D01*
X112472435Y-67484524D01*
X112433765Y-67472793D01*
X112398126Y-67453743D01*
X112362120Y-67424194D01*
X112322270Y-67384344D01*
X112322264Y-67384339D01*
X111941487Y-67003562D01*
X111941482Y-67003556D01*
X111901632Y-66963706D01*
X111872083Y-66927700D01*
X111853033Y-66892061D01*
X111841302Y-66853391D01*
X111837342Y-66813173D01*
X111841302Y-66772955D01*
X111853033Y-66734285D01*
X111872083Y-66698646D01*
X111901632Y-66662640D01*
X111941482Y-66622790D01*
X111941487Y-66622784D01*
X112622784Y-65941487D01*
X112622790Y-65941482D01*
X112662640Y-65901632D01*
X112698646Y-65872083D01*
X112734285Y-65853033D01*
X112772955Y-65841302D01*
X112813173Y-65837342D01*
X112853391Y-65841302D01*
X112853391Y-65841302D01*
G37*
G36*
X126853391Y-65841302D02*
G01*
X126892061Y-65853033D01*
X126927700Y-65872083D01*
X126963706Y-65901632D01*
X127003556Y-65941482D01*
X127003562Y-65941487D01*
X127384339Y-66322264D01*
X127384344Y-66322270D01*
X127424194Y-66362120D01*
X127453743Y-66398126D01*
X127472793Y-66433765D01*
X127484524Y-66472435D01*
X127488484Y-66512653D01*
X127484524Y-66552871D01*
X127472793Y-66591541D01*
X127453743Y-66627180D01*
X127424194Y-66663186D01*
X127384344Y-66703036D01*
X127384339Y-66703042D01*
X126703042Y-67384339D01*
X126703036Y-67384344D01*
X126663186Y-67424194D01*
X126627180Y-67453743D01*
X126591541Y-67472793D01*
X126552871Y-67484524D01*
X126512653Y-67488484D01*
X126472435Y-67484524D01*
X126433765Y-67472793D01*
X126398126Y-67453743D01*
X126362120Y-67424194D01*
X126322270Y-67384344D01*
X126322264Y-67384339D01*
X125941487Y-67003562D01*
X125941482Y-67003556D01*
X125901632Y-66963706D01*
X125872083Y-66927700D01*
X125853033Y-66892061D01*
X125841302Y-66853391D01*
X125837342Y-66813173D01*
X125841302Y-66772955D01*
X125853033Y-66734285D01*
X125872083Y-66698646D01*
X125901632Y-66662640D01*
X125941482Y-66622790D01*
X125941487Y-66622784D01*
X126622784Y-65941487D01*
X126622790Y-65941482D01*
X126662640Y-65901632D01*
X126698646Y-65872083D01*
X126734285Y-65853033D01*
X126772955Y-65841302D01*
X126813173Y-65837342D01*
X126853391Y-65841302D01*
X126853391Y-65841302D01*
G37*
G36*
X119853391Y-65841302D02*
G01*
X119892061Y-65853033D01*
X119927700Y-65872083D01*
X119963706Y-65901632D01*
X120003556Y-65941482D01*
X120003562Y-65941487D01*
X120384339Y-66322264D01*
X120384344Y-66322270D01*
X120424194Y-66362120D01*
X120453743Y-66398126D01*
X120472793Y-66433765D01*
X120484524Y-66472435D01*
X120488484Y-66512653D01*
X120484524Y-66552871D01*
X120472793Y-66591541D01*
X120453743Y-66627180D01*
X120424194Y-66663186D01*
X120384344Y-66703036D01*
X120384339Y-66703042D01*
X119703042Y-67384339D01*
X119703036Y-67384344D01*
X119663186Y-67424194D01*
X119627180Y-67453743D01*
X119591541Y-67472793D01*
X119552871Y-67484524D01*
X119512653Y-67488484D01*
X119472435Y-67484524D01*
X119433765Y-67472793D01*
X119398126Y-67453743D01*
X119362120Y-67424194D01*
X119322270Y-67384344D01*
X119322264Y-67384339D01*
X118941487Y-67003562D01*
X118941482Y-67003556D01*
X118901632Y-66963706D01*
X118872083Y-66927700D01*
X118853033Y-66892061D01*
X118841302Y-66853391D01*
X118837342Y-66813173D01*
X118841302Y-66772955D01*
X118853033Y-66734285D01*
X118872083Y-66698646D01*
X118901632Y-66662640D01*
X118941482Y-66622790D01*
X118941487Y-66622784D01*
X119622784Y-65941487D01*
X119622790Y-65941482D01*
X119662640Y-65901632D01*
X119698646Y-65872083D01*
X119734285Y-65853033D01*
X119772955Y-65841302D01*
X119813173Y-65837342D01*
X119853391Y-65841302D01*
X119853391Y-65841302D01*
G37*
G36*
X111527565Y-64515476D02*
G01*
X111566235Y-64527207D01*
X111601874Y-64546257D01*
X111637880Y-64575806D01*
X111677730Y-64615656D01*
X111677736Y-64615661D01*
X112058513Y-64996438D01*
X112058518Y-64996444D01*
X112098368Y-65036294D01*
X112127917Y-65072300D01*
X112146967Y-65107939D01*
X112158698Y-65146609D01*
X112162658Y-65186827D01*
X112158698Y-65227045D01*
X112146967Y-65265715D01*
X112127917Y-65301354D01*
X112098368Y-65337360D01*
X112058518Y-65377210D01*
X112058513Y-65377216D01*
X111377216Y-66058513D01*
X111377210Y-66058518D01*
X111337360Y-66098368D01*
X111301354Y-66127917D01*
X111265715Y-66146967D01*
X111227045Y-66158698D01*
X111186827Y-66162658D01*
X111146609Y-66158698D01*
X111107939Y-66146967D01*
X111072300Y-66127917D01*
X111036294Y-66098368D01*
X110996444Y-66058518D01*
X110996438Y-66058513D01*
X110615661Y-65677736D01*
X110615656Y-65677730D01*
X110575806Y-65637880D01*
X110546257Y-65601874D01*
X110527207Y-65566235D01*
X110515476Y-65527565D01*
X110511516Y-65487347D01*
X110515476Y-65447129D01*
X110527207Y-65408459D01*
X110546257Y-65372820D01*
X110575806Y-65336814D01*
X110615656Y-65296964D01*
X110615661Y-65296958D01*
X111296958Y-64615661D01*
X111296964Y-64615656D01*
X111336814Y-64575806D01*
X111372820Y-64546257D01*
X111408459Y-64527207D01*
X111447129Y-64515476D01*
X111487347Y-64511516D01*
X111527565Y-64515476D01*
X111527565Y-64515476D01*
G37*
G36*
X118527565Y-64515476D02*
G01*
X118566235Y-64527207D01*
X118601874Y-64546257D01*
X118637880Y-64575806D01*
X118677730Y-64615656D01*
X118677736Y-64615661D01*
X119058513Y-64996438D01*
X119058518Y-64996444D01*
X119098368Y-65036294D01*
X119127917Y-65072300D01*
X119146967Y-65107939D01*
X119158698Y-65146609D01*
X119162658Y-65186827D01*
X119158698Y-65227045D01*
X119146967Y-65265715D01*
X119127917Y-65301354D01*
X119098368Y-65337360D01*
X119058518Y-65377210D01*
X119058513Y-65377216D01*
X118377216Y-66058513D01*
X118377210Y-66058518D01*
X118337360Y-66098368D01*
X118301354Y-66127917D01*
X118265715Y-66146967D01*
X118227045Y-66158698D01*
X118186827Y-66162658D01*
X118146609Y-66158698D01*
X118107939Y-66146967D01*
X118072300Y-66127917D01*
X118036294Y-66098368D01*
X117996444Y-66058518D01*
X117996438Y-66058513D01*
X117615661Y-65677736D01*
X117615656Y-65677730D01*
X117575806Y-65637880D01*
X117546257Y-65601874D01*
X117527207Y-65566235D01*
X117515476Y-65527565D01*
X117511516Y-65487347D01*
X117515476Y-65447129D01*
X117527207Y-65408459D01*
X117546257Y-65372820D01*
X117575806Y-65336814D01*
X117615656Y-65296964D01*
X117615661Y-65296958D01*
X118296958Y-64615661D01*
X118296964Y-64615656D01*
X118336814Y-64575806D01*
X118372820Y-64546257D01*
X118408459Y-64527207D01*
X118447129Y-64515476D01*
X118487347Y-64511516D01*
X118527565Y-64515476D01*
X118527565Y-64515476D01*
G37*
G36*
X125527565Y-64515476D02*
G01*
X125566235Y-64527207D01*
X125601874Y-64546257D01*
X125637880Y-64575806D01*
X125677730Y-64615656D01*
X125677736Y-64615661D01*
X126058513Y-64996438D01*
X126058518Y-64996444D01*
X126098368Y-65036294D01*
X126127917Y-65072300D01*
X126146967Y-65107939D01*
X126158698Y-65146609D01*
X126162658Y-65186827D01*
X126158698Y-65227045D01*
X126146967Y-65265715D01*
X126127917Y-65301354D01*
X126098368Y-65337360D01*
X126058518Y-65377210D01*
X126058513Y-65377216D01*
X125377216Y-66058513D01*
X125377210Y-66058518D01*
X125337360Y-66098368D01*
X125301354Y-66127917D01*
X125265715Y-66146967D01*
X125227045Y-66158698D01*
X125186827Y-66162658D01*
X125146609Y-66158698D01*
X125107939Y-66146967D01*
X125072300Y-66127917D01*
X125036294Y-66098368D01*
X124996444Y-66058518D01*
X124996438Y-66058513D01*
X124615661Y-65677736D01*
X124615656Y-65677730D01*
X124575806Y-65637880D01*
X124546257Y-65601874D01*
X124527207Y-65566235D01*
X124515476Y-65527565D01*
X124511516Y-65487347D01*
X124515476Y-65447129D01*
X124527207Y-65408459D01*
X124546257Y-65372820D01*
X124575806Y-65336814D01*
X124615656Y-65296964D01*
X124615661Y-65296958D01*
X125296958Y-64615661D01*
X125296964Y-64615656D01*
X125336814Y-64575806D01*
X125372820Y-64546257D01*
X125408459Y-64527207D01*
X125447129Y-64515476D01*
X125487347Y-64511516D01*
X125527565Y-64515476D01*
X125527565Y-64515476D01*
G37*
G36*
X132527565Y-64515476D02*
G01*
X132566235Y-64527207D01*
X132601874Y-64546257D01*
X132637880Y-64575806D01*
X132677730Y-64615656D01*
X132677736Y-64615661D01*
X133058513Y-64996438D01*
X133058518Y-64996444D01*
X133098368Y-65036294D01*
X133127917Y-65072300D01*
X133146967Y-65107939D01*
X133158698Y-65146609D01*
X133162658Y-65186827D01*
X133158698Y-65227045D01*
X133146967Y-65265715D01*
X133127917Y-65301354D01*
X133098368Y-65337360D01*
X133058518Y-65377210D01*
X133058513Y-65377216D01*
X132377216Y-66058513D01*
X132377210Y-66058518D01*
X132337360Y-66098368D01*
X132301354Y-66127917D01*
X132265715Y-66146967D01*
X132227045Y-66158698D01*
X132186827Y-66162658D01*
X132146609Y-66158698D01*
X132107939Y-66146967D01*
X132072300Y-66127917D01*
X132036294Y-66098368D01*
X131996444Y-66058518D01*
X131996438Y-66058513D01*
X131615661Y-65677736D01*
X131615656Y-65677730D01*
X131575806Y-65637880D01*
X131546257Y-65601874D01*
X131527207Y-65566235D01*
X131515476Y-65527565D01*
X131511516Y-65487347D01*
X131515476Y-65447129D01*
X131527207Y-65408459D01*
X131546257Y-65372820D01*
X131575806Y-65336814D01*
X131615656Y-65296964D01*
X131615661Y-65296958D01*
X132296958Y-64615661D01*
X132296964Y-64615656D01*
X132336814Y-64575806D01*
X132372820Y-64546257D01*
X132408459Y-64527207D01*
X132447129Y-64515476D01*
X132487347Y-64511516D01*
X132527565Y-64515476D01*
X132527565Y-64515476D01*
G37*
G36*
X143151000Y-63051000D02*
G01*
X141849000Y-63051000D01*
X141849000Y-60449000D01*
X143151000Y-60449000D01*
X143151000Y-63051000D01*
X143151000Y-63051000D01*
G37*
G36*
X138151000Y-63051000D02*
G01*
X136849000Y-63051000D01*
X136849000Y-60449000D01*
X138151000Y-60449000D01*
X138151000Y-63051000D01*
X138151000Y-63051000D01*
G37*
G36*
X140651000Y-63051000D02*
G01*
X139349000Y-63051000D01*
X139349000Y-60449000D01*
X140651000Y-60449000D01*
X140651000Y-63051000D01*
X140651000Y-63051000D01*
G37*
G36*
X108190443Y-59605519D02*
G01*
X108256627Y-59612037D01*
X108426466Y-59663557D01*
X108582991Y-59747222D01*
X108618729Y-59776552D01*
X108720186Y-59859814D01*
X108803448Y-59961271D01*
X108832778Y-59997009D01*
X108916443Y-60153534D01*
X108967963Y-60323373D01*
X108985359Y-60500000D01*
X108967963Y-60676627D01*
X108916443Y-60846466D01*
X108832778Y-61002991D01*
X108803448Y-61038729D01*
X108720186Y-61140186D01*
X108618729Y-61223448D01*
X108582991Y-61252778D01*
X108426466Y-61336443D01*
X108256627Y-61387963D01*
X108190442Y-61394482D01*
X108124260Y-61401000D01*
X108035740Y-61401000D01*
X107969558Y-61394482D01*
X107903373Y-61387963D01*
X107733534Y-61336443D01*
X107577009Y-61252778D01*
X107541271Y-61223448D01*
X107439814Y-61140186D01*
X107356552Y-61038729D01*
X107327222Y-61002991D01*
X107243557Y-60846466D01*
X107192037Y-60676627D01*
X107174641Y-60500000D01*
X107192037Y-60323373D01*
X107243557Y-60153534D01*
X107327222Y-59997009D01*
X107356552Y-59961271D01*
X107439814Y-59859814D01*
X107541271Y-59776552D01*
X107577009Y-59747222D01*
X107733534Y-59663557D01*
X107903373Y-59612037D01*
X107969557Y-59605519D01*
X108035740Y-59599000D01*
X108124260Y-59599000D01*
X108190443Y-59605519D01*
X108190443Y-59605519D01*
G37*
G36*
X105650443Y-59605519D02*
G01*
X105716627Y-59612037D01*
X105886466Y-59663557D01*
X106042991Y-59747222D01*
X106078729Y-59776552D01*
X106180186Y-59859814D01*
X106263448Y-59961271D01*
X106292778Y-59997009D01*
X106376443Y-60153534D01*
X106427963Y-60323373D01*
X106445359Y-60500000D01*
X106427963Y-60676627D01*
X106376443Y-60846466D01*
X106292778Y-61002991D01*
X106263448Y-61038729D01*
X106180186Y-61140186D01*
X106078729Y-61223448D01*
X106042991Y-61252778D01*
X105886466Y-61336443D01*
X105716627Y-61387963D01*
X105650442Y-61394482D01*
X105584260Y-61401000D01*
X105495740Y-61401000D01*
X105429558Y-61394482D01*
X105363373Y-61387963D01*
X105193534Y-61336443D01*
X105037009Y-61252778D01*
X105001271Y-61223448D01*
X104899814Y-61140186D01*
X104816552Y-61038729D01*
X104787222Y-61002991D01*
X104703557Y-60846466D01*
X104652037Y-60676627D01*
X104634641Y-60500000D01*
X104652037Y-60323373D01*
X104703557Y-60153534D01*
X104787222Y-59997009D01*
X104816552Y-59961271D01*
X104899814Y-59859814D01*
X105001271Y-59776552D01*
X105037009Y-59747222D01*
X105193534Y-59663557D01*
X105363373Y-59612037D01*
X105429557Y-59605519D01*
X105495740Y-59599000D01*
X105584260Y-59599000D01*
X105650443Y-59605519D01*
X105650443Y-59605519D01*
G37*
G36*
X103901000Y-61401000D02*
G01*
X102099000Y-61401000D01*
X102099000Y-59599000D01*
X103901000Y-59599000D01*
X103901000Y-61401000D01*
X103901000Y-61401000D01*
G37*
G36*
X108190442Y-57065518D02*
G01*
X108256627Y-57072037D01*
X108426466Y-57123557D01*
X108582991Y-57207222D01*
X108618729Y-57236552D01*
X108720186Y-57319814D01*
X108803448Y-57421271D01*
X108832778Y-57457009D01*
X108916443Y-57613534D01*
X108967963Y-57783373D01*
X108985359Y-57960000D01*
X108967963Y-58136627D01*
X108916443Y-58306466D01*
X108832778Y-58462991D01*
X108803448Y-58498729D01*
X108720186Y-58600186D01*
X108618729Y-58683448D01*
X108582991Y-58712778D01*
X108426466Y-58796443D01*
X108256627Y-58847963D01*
X108190443Y-58854481D01*
X108124260Y-58861000D01*
X108035740Y-58861000D01*
X107969557Y-58854481D01*
X107903373Y-58847963D01*
X107733534Y-58796443D01*
X107577009Y-58712778D01*
X107541271Y-58683448D01*
X107439814Y-58600186D01*
X107356552Y-58498729D01*
X107327222Y-58462991D01*
X107243557Y-58306466D01*
X107192037Y-58136627D01*
X107174641Y-57960000D01*
X107192037Y-57783373D01*
X107243557Y-57613534D01*
X107327222Y-57457009D01*
X107356552Y-57421271D01*
X107439814Y-57319814D01*
X107541271Y-57236552D01*
X107577009Y-57207222D01*
X107733534Y-57123557D01*
X107903373Y-57072037D01*
X107969558Y-57065518D01*
X108035740Y-57059000D01*
X108124260Y-57059000D01*
X108190442Y-57065518D01*
X108190442Y-57065518D01*
G37*
G36*
X105650442Y-57065518D02*
G01*
X105716627Y-57072037D01*
X105886466Y-57123557D01*
X106042991Y-57207222D01*
X106078729Y-57236552D01*
X106180186Y-57319814D01*
X106263448Y-57421271D01*
X106292778Y-57457009D01*
X106376443Y-57613534D01*
X106427963Y-57783373D01*
X106445359Y-57960000D01*
X106427963Y-58136627D01*
X106376443Y-58306466D01*
X106292778Y-58462991D01*
X106263448Y-58498729D01*
X106180186Y-58600186D01*
X106078729Y-58683448D01*
X106042991Y-58712778D01*
X105886466Y-58796443D01*
X105716627Y-58847963D01*
X105650443Y-58854481D01*
X105584260Y-58861000D01*
X105495740Y-58861000D01*
X105429557Y-58854481D01*
X105363373Y-58847963D01*
X105193534Y-58796443D01*
X105037009Y-58712778D01*
X105001271Y-58683448D01*
X104899814Y-58600186D01*
X104816552Y-58498729D01*
X104787222Y-58462991D01*
X104703557Y-58306466D01*
X104652037Y-58136627D01*
X104634641Y-57960000D01*
X104652037Y-57783373D01*
X104703557Y-57613534D01*
X104787222Y-57457009D01*
X104816552Y-57421271D01*
X104899814Y-57319814D01*
X105001271Y-57236552D01*
X105037009Y-57207222D01*
X105193534Y-57123557D01*
X105363373Y-57072037D01*
X105429558Y-57065518D01*
X105495740Y-57059000D01*
X105584260Y-57059000D01*
X105650442Y-57065518D01*
X105650442Y-57065518D01*
G37*
G36*
X103110442Y-57065518D02*
G01*
X103176627Y-57072037D01*
X103346466Y-57123557D01*
X103502991Y-57207222D01*
X103538729Y-57236552D01*
X103640186Y-57319814D01*
X103723448Y-57421271D01*
X103752778Y-57457009D01*
X103836443Y-57613534D01*
X103887963Y-57783373D01*
X103905359Y-57960000D01*
X103887963Y-58136627D01*
X103836443Y-58306466D01*
X103752778Y-58462991D01*
X103723448Y-58498729D01*
X103640186Y-58600186D01*
X103538729Y-58683448D01*
X103502991Y-58712778D01*
X103346466Y-58796443D01*
X103176627Y-58847963D01*
X103110443Y-58854481D01*
X103044260Y-58861000D01*
X102955740Y-58861000D01*
X102889557Y-58854481D01*
X102823373Y-58847963D01*
X102653534Y-58796443D01*
X102497009Y-58712778D01*
X102461271Y-58683448D01*
X102359814Y-58600186D01*
X102276552Y-58498729D01*
X102247222Y-58462991D01*
X102163557Y-58306466D01*
X102112037Y-58136627D01*
X102094641Y-57960000D01*
X102112037Y-57783373D01*
X102163557Y-57613534D01*
X102247222Y-57457009D01*
X102276552Y-57421271D01*
X102359814Y-57319814D01*
X102461271Y-57236552D01*
X102497009Y-57207222D01*
X102653534Y-57123557D01*
X102823373Y-57072037D01*
X102889558Y-57065518D01*
X102955740Y-57059000D01*
X103044260Y-57059000D01*
X103110442Y-57065518D01*
X103110442Y-57065518D01*
G37*
G36*
X140651000Y-57551000D02*
G01*
X139349000Y-57551000D01*
X139349000Y-54949000D01*
X140651000Y-54949000D01*
X140651000Y-57551000D01*
X140651000Y-57551000D01*
G37*
G36*
X138151000Y-57551000D02*
G01*
X136849000Y-57551000D01*
X136849000Y-54949000D01*
X138151000Y-54949000D01*
X138151000Y-57551000D01*
X138151000Y-57551000D01*
G37*
G36*
X143151000Y-57551000D02*
G01*
X141849000Y-57551000D01*
X141849000Y-54949000D01*
X143151000Y-54949000D01*
X143151000Y-57551000D01*
X143151000Y-57551000D01*
G37*
M02*
