G04 #@! TF.GenerationSoftware,KiCad,Pcbnew,5.1.4-e60b266~84~ubuntu19.04.1*
G04 #@! TF.CreationDate,2019-10-10T20:23:52-06:00*
G04 #@! TF.ProjectId,Christmas Card,43687269-7374-46d6-9173-20436172642e,rev?*
G04 #@! TF.SameCoordinates,Original*
G04 #@! TF.FileFunction,Soldermask,Bot*
G04 #@! TF.FilePolarity,Negative*
%FSLAX46Y46*%
G04 Gerber Fmt 4.6, Leading zero omitted, Abs format (unit mm)*
G04 Created by KiCad (PCBNEW 5.1.4-e60b266~84~ubuntu19.04.1) date 2019-10-10 20:23:52*
%MOMM*%
%LPD*%
G04 APERTURE LIST*
%ADD10C,0.100000*%
G04 APERTURE END LIST*
D10*
G36*
X124337933Y-92941143D02*
G01*
X125484641Y-93416125D01*
X125484643Y-93416126D01*
X125744397Y-93589688D01*
X126516653Y-94105693D01*
X127394307Y-94983347D01*
X128083875Y-96015359D01*
X128558857Y-97162067D01*
X128801000Y-98379404D01*
X128801000Y-99620596D01*
X128558857Y-100837933D01*
X128083875Y-101984641D01*
X127394307Y-103016653D01*
X126516653Y-103894307D01*
X125744397Y-104410312D01*
X125484643Y-104583874D01*
X125484642Y-104583875D01*
X125484641Y-104583875D01*
X124337933Y-105058857D01*
X123120596Y-105301000D01*
X121879404Y-105301000D01*
X120662067Y-105058857D01*
X119515359Y-104583875D01*
X119515358Y-104583875D01*
X119515357Y-104583874D01*
X119255603Y-104410312D01*
X118483347Y-103894307D01*
X117605693Y-103016653D01*
X116916125Y-101984641D01*
X116441143Y-100837933D01*
X116199000Y-99620596D01*
X116199000Y-98379404D01*
X116441143Y-97162067D01*
X116916125Y-96015359D01*
X117605693Y-94983347D01*
X118483347Y-94105693D01*
X119255603Y-93589688D01*
X119515357Y-93416126D01*
X119515359Y-93416125D01*
X120662067Y-92941143D01*
X121879404Y-92699000D01*
X123120596Y-92699000D01*
X124337933Y-92941143D01*
X124337933Y-92941143D01*
G37*
G36*
X135756000Y-101831000D02*
G01*
X133054000Y-101831000D01*
X133054000Y-96169000D01*
X135756000Y-96169000D01*
X135756000Y-101831000D01*
X135756000Y-101831000D01*
G37*
G36*
X111946000Y-101831000D02*
G01*
X109244000Y-101831000D01*
X109244000Y-96169000D01*
X111946000Y-96169000D01*
X111946000Y-101831000D01*
X111946000Y-101831000D01*
G37*
G36*
X112853391Y-89841302D02*
G01*
X112892061Y-89853033D01*
X112927700Y-89872083D01*
X112963706Y-89901632D01*
X113003556Y-89941482D01*
X113003562Y-89941487D01*
X113384339Y-90322264D01*
X113384344Y-90322270D01*
X113424194Y-90362120D01*
X113453743Y-90398126D01*
X113472793Y-90433765D01*
X113484524Y-90472435D01*
X113488484Y-90512653D01*
X113484524Y-90552871D01*
X113472793Y-90591541D01*
X113453743Y-90627180D01*
X113424194Y-90663186D01*
X113384344Y-90703036D01*
X113384339Y-90703042D01*
X112703042Y-91384339D01*
X112703036Y-91384344D01*
X112663186Y-91424194D01*
X112627180Y-91453743D01*
X112591541Y-91472793D01*
X112552871Y-91484524D01*
X112512653Y-91488484D01*
X112472435Y-91484524D01*
X112433765Y-91472793D01*
X112398126Y-91453743D01*
X112362120Y-91424194D01*
X112322270Y-91384344D01*
X112322264Y-91384339D01*
X111941487Y-91003562D01*
X111941482Y-91003556D01*
X111901632Y-90963706D01*
X111872083Y-90927700D01*
X111853033Y-90892061D01*
X111841302Y-90853391D01*
X111837342Y-90813173D01*
X111841302Y-90772955D01*
X111853033Y-90734285D01*
X111872083Y-90698646D01*
X111901632Y-90662640D01*
X111941482Y-90622790D01*
X111941487Y-90622784D01*
X112622784Y-89941487D01*
X112622790Y-89941482D01*
X112662640Y-89901632D01*
X112698646Y-89872083D01*
X112734285Y-89853033D01*
X112772955Y-89841302D01*
X112813173Y-89837342D01*
X112853391Y-89841302D01*
X112853391Y-89841302D01*
G37*
G36*
X111527565Y-88515476D02*
G01*
X111566235Y-88527207D01*
X111601874Y-88546257D01*
X111637880Y-88575806D01*
X111677730Y-88615656D01*
X111677736Y-88615661D01*
X112058513Y-88996438D01*
X112058518Y-88996444D01*
X112098368Y-89036294D01*
X112127917Y-89072300D01*
X112146967Y-89107939D01*
X112158698Y-89146609D01*
X112162658Y-89186827D01*
X112158698Y-89227045D01*
X112146967Y-89265715D01*
X112127917Y-89301354D01*
X112098368Y-89337360D01*
X112058518Y-89377210D01*
X112058513Y-89377216D01*
X111377216Y-90058513D01*
X111377210Y-90058518D01*
X111337360Y-90098368D01*
X111301354Y-90127917D01*
X111265715Y-90146967D01*
X111227045Y-90158698D01*
X111186827Y-90162658D01*
X111146609Y-90158698D01*
X111107939Y-90146967D01*
X111072300Y-90127917D01*
X111036294Y-90098368D01*
X110996444Y-90058518D01*
X110996438Y-90058513D01*
X110615661Y-89677736D01*
X110615656Y-89677730D01*
X110575806Y-89637880D01*
X110546257Y-89601874D01*
X110527207Y-89566235D01*
X110515476Y-89527565D01*
X110511516Y-89487347D01*
X110515476Y-89447129D01*
X110527207Y-89408459D01*
X110546257Y-89372820D01*
X110575806Y-89336814D01*
X110615656Y-89296964D01*
X110615661Y-89296958D01*
X111296958Y-88615661D01*
X111296964Y-88615656D01*
X111336814Y-88575806D01*
X111372820Y-88546257D01*
X111408459Y-88527207D01*
X111447129Y-88515476D01*
X111487347Y-88511516D01*
X111527565Y-88515476D01*
X111527565Y-88515476D01*
G37*
G36*
X119853391Y-82841302D02*
G01*
X119892061Y-82853033D01*
X119927700Y-82872083D01*
X119963706Y-82901632D01*
X120003556Y-82941482D01*
X120003562Y-82941487D01*
X120384339Y-83322264D01*
X120384344Y-83322270D01*
X120424194Y-83362120D01*
X120453743Y-83398126D01*
X120472793Y-83433765D01*
X120484524Y-83472435D01*
X120488484Y-83512653D01*
X120484524Y-83552871D01*
X120472793Y-83591541D01*
X120453743Y-83627180D01*
X120424194Y-83663186D01*
X120384344Y-83703036D01*
X120384339Y-83703042D01*
X119703042Y-84384339D01*
X119703036Y-84384344D01*
X119663186Y-84424194D01*
X119627180Y-84453743D01*
X119591541Y-84472793D01*
X119552871Y-84484524D01*
X119512653Y-84488484D01*
X119472435Y-84484524D01*
X119433765Y-84472793D01*
X119398126Y-84453743D01*
X119362120Y-84424194D01*
X119322270Y-84384344D01*
X119322264Y-84384339D01*
X118941487Y-84003562D01*
X118941482Y-84003556D01*
X118901632Y-83963706D01*
X118872083Y-83927700D01*
X118853033Y-83892061D01*
X118841302Y-83853391D01*
X118837342Y-83813173D01*
X118841302Y-83772955D01*
X118853033Y-83734285D01*
X118872083Y-83698646D01*
X118901632Y-83662640D01*
X118941482Y-83622790D01*
X118941487Y-83622784D01*
X119622784Y-82941487D01*
X119622790Y-82941482D01*
X119662640Y-82901632D01*
X119698646Y-82872083D01*
X119734285Y-82853033D01*
X119772955Y-82841302D01*
X119813173Y-82837342D01*
X119853391Y-82841302D01*
X119853391Y-82841302D01*
G37*
G36*
X118527565Y-81515476D02*
G01*
X118566235Y-81527207D01*
X118601874Y-81546257D01*
X118637880Y-81575806D01*
X118677730Y-81615656D01*
X118677736Y-81615661D01*
X119058513Y-81996438D01*
X119058518Y-81996444D01*
X119098368Y-82036294D01*
X119127917Y-82072300D01*
X119146967Y-82107939D01*
X119158698Y-82146609D01*
X119162658Y-82186827D01*
X119158698Y-82227045D01*
X119146967Y-82265715D01*
X119127917Y-82301354D01*
X119098368Y-82337360D01*
X119058518Y-82377210D01*
X119058513Y-82377216D01*
X118377216Y-83058513D01*
X118377210Y-83058518D01*
X118337360Y-83098368D01*
X118301354Y-83127917D01*
X118265715Y-83146967D01*
X118227045Y-83158698D01*
X118186827Y-83162658D01*
X118146609Y-83158698D01*
X118107939Y-83146967D01*
X118072300Y-83127917D01*
X118036294Y-83098368D01*
X117996444Y-83058518D01*
X117996438Y-83058513D01*
X117615661Y-82677736D01*
X117615656Y-82677730D01*
X117575806Y-82637880D01*
X117546257Y-82601874D01*
X117527207Y-82566235D01*
X117515476Y-82527565D01*
X117511516Y-82487347D01*
X117515476Y-82447129D01*
X117527207Y-82408459D01*
X117546257Y-82372820D01*
X117575806Y-82336814D01*
X117615656Y-82296964D01*
X117615661Y-82296958D01*
X118296958Y-81615661D01*
X118296964Y-81615656D01*
X118336814Y-81575806D01*
X118372820Y-81546257D01*
X118408459Y-81527207D01*
X118447129Y-81515476D01*
X118487347Y-81511516D01*
X118527565Y-81515476D01*
X118527565Y-81515476D01*
G37*
G36*
X126853391Y-75841302D02*
G01*
X126892061Y-75853033D01*
X126927700Y-75872083D01*
X126963706Y-75901632D01*
X127003556Y-75941482D01*
X127003562Y-75941487D01*
X127384339Y-76322264D01*
X127384344Y-76322270D01*
X127424194Y-76362120D01*
X127453743Y-76398126D01*
X127472793Y-76433765D01*
X127484524Y-76472435D01*
X127488484Y-76512653D01*
X127484524Y-76552871D01*
X127472793Y-76591541D01*
X127453743Y-76627180D01*
X127424194Y-76663186D01*
X127384344Y-76703036D01*
X127384339Y-76703042D01*
X126703042Y-77384339D01*
X126703036Y-77384344D01*
X126663186Y-77424194D01*
X126627180Y-77453743D01*
X126591541Y-77472793D01*
X126552871Y-77484524D01*
X126512653Y-77488484D01*
X126472435Y-77484524D01*
X126433765Y-77472793D01*
X126398126Y-77453743D01*
X126362120Y-77424194D01*
X126322270Y-77384344D01*
X126322264Y-77384339D01*
X125941487Y-77003562D01*
X125941482Y-77003556D01*
X125901632Y-76963706D01*
X125872083Y-76927700D01*
X125853033Y-76892061D01*
X125841302Y-76853391D01*
X125837342Y-76813173D01*
X125841302Y-76772955D01*
X125853033Y-76734285D01*
X125872083Y-76698646D01*
X125901632Y-76662640D01*
X125941482Y-76622790D01*
X125941487Y-76622784D01*
X126622784Y-75941487D01*
X126622790Y-75941482D01*
X126662640Y-75901632D01*
X126698646Y-75872083D01*
X126734285Y-75853033D01*
X126772955Y-75841302D01*
X126813173Y-75837342D01*
X126853391Y-75841302D01*
X126853391Y-75841302D01*
G37*
G36*
X125527565Y-74515476D02*
G01*
X125566235Y-74527207D01*
X125601874Y-74546257D01*
X125637880Y-74575806D01*
X125677730Y-74615656D01*
X125677736Y-74615661D01*
X126058513Y-74996438D01*
X126058518Y-74996444D01*
X126098368Y-75036294D01*
X126127917Y-75072300D01*
X126146967Y-75107939D01*
X126158698Y-75146609D01*
X126162658Y-75186827D01*
X126158698Y-75227045D01*
X126146967Y-75265715D01*
X126127917Y-75301354D01*
X126098368Y-75337360D01*
X126058518Y-75377210D01*
X126058513Y-75377216D01*
X125377216Y-76058513D01*
X125377210Y-76058518D01*
X125337360Y-76098368D01*
X125301354Y-76127917D01*
X125265715Y-76146967D01*
X125227045Y-76158698D01*
X125186827Y-76162658D01*
X125146609Y-76158698D01*
X125107939Y-76146967D01*
X125072300Y-76127917D01*
X125036294Y-76098368D01*
X124996444Y-76058518D01*
X124996438Y-76058513D01*
X124615661Y-75677736D01*
X124615656Y-75677730D01*
X124575806Y-75637880D01*
X124546257Y-75601874D01*
X124527207Y-75566235D01*
X124515476Y-75527565D01*
X124511516Y-75487347D01*
X124515476Y-75447129D01*
X124527207Y-75408459D01*
X124546257Y-75372820D01*
X124575806Y-75336814D01*
X124615656Y-75296964D01*
X124615661Y-75296958D01*
X125296958Y-74615661D01*
X125296964Y-74615656D01*
X125336814Y-74575806D01*
X125372820Y-74546257D01*
X125408459Y-74527207D01*
X125447129Y-74515476D01*
X125487347Y-74511516D01*
X125527565Y-74515476D01*
X125527565Y-74515476D01*
G37*
G36*
X133853391Y-68841302D02*
G01*
X133892061Y-68853033D01*
X133927700Y-68872083D01*
X133963706Y-68901632D01*
X134003556Y-68941482D01*
X134003562Y-68941487D01*
X134384339Y-69322264D01*
X134384344Y-69322270D01*
X134424194Y-69362120D01*
X134453743Y-69398126D01*
X134472793Y-69433765D01*
X134484524Y-69472435D01*
X134488484Y-69512653D01*
X134484524Y-69552871D01*
X134472793Y-69591541D01*
X134453743Y-69627180D01*
X134424194Y-69663186D01*
X134384344Y-69703036D01*
X134384339Y-69703042D01*
X133703042Y-70384339D01*
X133703036Y-70384344D01*
X133663186Y-70424194D01*
X133627180Y-70453743D01*
X133591541Y-70472793D01*
X133552871Y-70484524D01*
X133512653Y-70488484D01*
X133472435Y-70484524D01*
X133433765Y-70472793D01*
X133398126Y-70453743D01*
X133362120Y-70424194D01*
X133322270Y-70384344D01*
X133322264Y-70384339D01*
X132941487Y-70003562D01*
X132941482Y-70003556D01*
X132901632Y-69963706D01*
X132872083Y-69927700D01*
X132853033Y-69892061D01*
X132841302Y-69853391D01*
X132837342Y-69813173D01*
X132841302Y-69772955D01*
X132853033Y-69734285D01*
X132872083Y-69698646D01*
X132901632Y-69662640D01*
X132941482Y-69622790D01*
X132941487Y-69622784D01*
X133622784Y-68941487D01*
X133622790Y-68941482D01*
X133662640Y-68901632D01*
X133698646Y-68872083D01*
X133734285Y-68853033D01*
X133772955Y-68841302D01*
X133813173Y-68837342D01*
X133853391Y-68841302D01*
X133853391Y-68841302D01*
G37*
G36*
X132527565Y-67515476D02*
G01*
X132566235Y-67527207D01*
X132601874Y-67546257D01*
X132637880Y-67575806D01*
X132677730Y-67615656D01*
X132677736Y-67615661D01*
X133058513Y-67996438D01*
X133058518Y-67996444D01*
X133098368Y-68036294D01*
X133127917Y-68072300D01*
X133146967Y-68107939D01*
X133158698Y-68146609D01*
X133162658Y-68186827D01*
X133158698Y-68227045D01*
X133146967Y-68265715D01*
X133127917Y-68301354D01*
X133098368Y-68337360D01*
X133058518Y-68377210D01*
X133058513Y-68377216D01*
X132377216Y-69058513D01*
X132377210Y-69058518D01*
X132337360Y-69098368D01*
X132301354Y-69127917D01*
X132265715Y-69146967D01*
X132227045Y-69158698D01*
X132186827Y-69162658D01*
X132146609Y-69158698D01*
X132107939Y-69146967D01*
X132072300Y-69127917D01*
X132036294Y-69098368D01*
X131996444Y-69058518D01*
X131996438Y-69058513D01*
X131615661Y-68677736D01*
X131615656Y-68677730D01*
X131575806Y-68637880D01*
X131546257Y-68601874D01*
X131527207Y-68566235D01*
X131515476Y-68527565D01*
X131511516Y-68487347D01*
X131515476Y-68447129D01*
X131527207Y-68408459D01*
X131546257Y-68372820D01*
X131575806Y-68336814D01*
X131615656Y-68296964D01*
X131615661Y-68296958D01*
X132296958Y-67615661D01*
X132296964Y-67615656D01*
X132336814Y-67575806D01*
X132372820Y-67546257D01*
X132408459Y-67527207D01*
X132447129Y-67515476D01*
X132487347Y-67511516D01*
X132527565Y-67515476D01*
X132527565Y-67515476D01*
G37*
G36*
X137853391Y-64841302D02*
G01*
X137892061Y-64853033D01*
X137927700Y-64872083D01*
X137963706Y-64901632D01*
X138003556Y-64941482D01*
X138003562Y-64941487D01*
X138384339Y-65322264D01*
X138384344Y-65322270D01*
X138424194Y-65362120D01*
X138453743Y-65398126D01*
X138472793Y-65433765D01*
X138484524Y-65472435D01*
X138488484Y-65512653D01*
X138484524Y-65552871D01*
X138472793Y-65591541D01*
X138453743Y-65627180D01*
X138424194Y-65663186D01*
X138384344Y-65703036D01*
X138384339Y-65703042D01*
X137703042Y-66384339D01*
X137703036Y-66384344D01*
X137663186Y-66424194D01*
X137627180Y-66453743D01*
X137591541Y-66472793D01*
X137552871Y-66484524D01*
X137512653Y-66488484D01*
X137472435Y-66484524D01*
X137433765Y-66472793D01*
X137398126Y-66453743D01*
X137362120Y-66424194D01*
X137322270Y-66384344D01*
X137322264Y-66384339D01*
X136941487Y-66003562D01*
X136941482Y-66003556D01*
X136901632Y-65963706D01*
X136872083Y-65927700D01*
X136853033Y-65892061D01*
X136841302Y-65853391D01*
X136837342Y-65813173D01*
X136841302Y-65772955D01*
X136853033Y-65734285D01*
X136872083Y-65698646D01*
X136901632Y-65662640D01*
X136941482Y-65622790D01*
X136941487Y-65622784D01*
X137622784Y-64941487D01*
X137622790Y-64941482D01*
X137662640Y-64901632D01*
X137698646Y-64872083D01*
X137734285Y-64853033D01*
X137772955Y-64841302D01*
X137813173Y-64837342D01*
X137853391Y-64841302D01*
X137853391Y-64841302D01*
G37*
G36*
X136527565Y-63515476D02*
G01*
X136566235Y-63527207D01*
X136601874Y-63546257D01*
X136637880Y-63575806D01*
X136677730Y-63615656D01*
X136677736Y-63615661D01*
X137058513Y-63996438D01*
X137058518Y-63996444D01*
X137098368Y-64036294D01*
X137127917Y-64072300D01*
X137146967Y-64107939D01*
X137158698Y-64146609D01*
X137162658Y-64186827D01*
X137158698Y-64227045D01*
X137146967Y-64265715D01*
X137127917Y-64301354D01*
X137098368Y-64337360D01*
X137058518Y-64377210D01*
X137058513Y-64377216D01*
X136377216Y-65058513D01*
X136377210Y-65058518D01*
X136337360Y-65098368D01*
X136301354Y-65127917D01*
X136265715Y-65146967D01*
X136227045Y-65158698D01*
X136186827Y-65162658D01*
X136146609Y-65158698D01*
X136107939Y-65146967D01*
X136072300Y-65127917D01*
X136036294Y-65098368D01*
X135996444Y-65058518D01*
X135996438Y-65058513D01*
X135615661Y-64677736D01*
X135615656Y-64677730D01*
X135575806Y-64637880D01*
X135546257Y-64601874D01*
X135527207Y-64566235D01*
X135515476Y-64527565D01*
X135511516Y-64487347D01*
X135515476Y-64447129D01*
X135527207Y-64408459D01*
X135546257Y-64372820D01*
X135575806Y-64336814D01*
X135615656Y-64296964D01*
X135615661Y-64296958D01*
X136296958Y-63615661D01*
X136296964Y-63615656D01*
X136336814Y-63575806D01*
X136372820Y-63546257D01*
X136408459Y-63527207D01*
X136447129Y-63515476D01*
X136487347Y-63511516D01*
X136527565Y-63515476D01*
X136527565Y-63515476D01*
G37*
G36*
X105650443Y-59605519D02*
G01*
X105716627Y-59612037D01*
X105886466Y-59663557D01*
X106042991Y-59747222D01*
X106078729Y-59776552D01*
X106180186Y-59859814D01*
X106263448Y-59961271D01*
X106292778Y-59997009D01*
X106376443Y-60153534D01*
X106427963Y-60323373D01*
X106445359Y-60500000D01*
X106427963Y-60676627D01*
X106376443Y-60846466D01*
X106292778Y-61002991D01*
X106263448Y-61038729D01*
X106180186Y-61140186D01*
X106078729Y-61223448D01*
X106042991Y-61252778D01*
X105886466Y-61336443D01*
X105716627Y-61387963D01*
X105650442Y-61394482D01*
X105584260Y-61401000D01*
X105495740Y-61401000D01*
X105429558Y-61394482D01*
X105363373Y-61387963D01*
X105193534Y-61336443D01*
X105037009Y-61252778D01*
X105001271Y-61223448D01*
X104899814Y-61140186D01*
X104816552Y-61038729D01*
X104787222Y-61002991D01*
X104703557Y-60846466D01*
X104652037Y-60676627D01*
X104634641Y-60500000D01*
X104652037Y-60323373D01*
X104703557Y-60153534D01*
X104787222Y-59997009D01*
X104816552Y-59961271D01*
X104899814Y-59859814D01*
X105001271Y-59776552D01*
X105037009Y-59747222D01*
X105193534Y-59663557D01*
X105363373Y-59612037D01*
X105429557Y-59605519D01*
X105495740Y-59599000D01*
X105584260Y-59599000D01*
X105650443Y-59605519D01*
X105650443Y-59605519D01*
G37*
G36*
X108190443Y-59605519D02*
G01*
X108256627Y-59612037D01*
X108426466Y-59663557D01*
X108582991Y-59747222D01*
X108618729Y-59776552D01*
X108720186Y-59859814D01*
X108803448Y-59961271D01*
X108832778Y-59997009D01*
X108916443Y-60153534D01*
X108967963Y-60323373D01*
X108985359Y-60500000D01*
X108967963Y-60676627D01*
X108916443Y-60846466D01*
X108832778Y-61002991D01*
X108803448Y-61038729D01*
X108720186Y-61140186D01*
X108618729Y-61223448D01*
X108582991Y-61252778D01*
X108426466Y-61336443D01*
X108256627Y-61387963D01*
X108190442Y-61394482D01*
X108124260Y-61401000D01*
X108035740Y-61401000D01*
X107969558Y-61394482D01*
X107903373Y-61387963D01*
X107733534Y-61336443D01*
X107577009Y-61252778D01*
X107541271Y-61223448D01*
X107439814Y-61140186D01*
X107356552Y-61038729D01*
X107327222Y-61002991D01*
X107243557Y-60846466D01*
X107192037Y-60676627D01*
X107174641Y-60500000D01*
X107192037Y-60323373D01*
X107243557Y-60153534D01*
X107327222Y-59997009D01*
X107356552Y-59961271D01*
X107439814Y-59859814D01*
X107541271Y-59776552D01*
X107577009Y-59747222D01*
X107733534Y-59663557D01*
X107903373Y-59612037D01*
X107969557Y-59605519D01*
X108035740Y-59599000D01*
X108124260Y-59599000D01*
X108190443Y-59605519D01*
X108190443Y-59605519D01*
G37*
G36*
X103901000Y-61401000D02*
G01*
X102099000Y-61401000D01*
X102099000Y-59599000D01*
X103901000Y-59599000D01*
X103901000Y-61401000D01*
X103901000Y-61401000D01*
G37*
G36*
X108190442Y-57065518D02*
G01*
X108256627Y-57072037D01*
X108426466Y-57123557D01*
X108582991Y-57207222D01*
X108618729Y-57236552D01*
X108720186Y-57319814D01*
X108803448Y-57421271D01*
X108832778Y-57457009D01*
X108916443Y-57613534D01*
X108967963Y-57783373D01*
X108985359Y-57960000D01*
X108967963Y-58136627D01*
X108916443Y-58306466D01*
X108832778Y-58462991D01*
X108803448Y-58498729D01*
X108720186Y-58600186D01*
X108618729Y-58683448D01*
X108582991Y-58712778D01*
X108426466Y-58796443D01*
X108256627Y-58847963D01*
X108190443Y-58854481D01*
X108124260Y-58861000D01*
X108035740Y-58861000D01*
X107969557Y-58854481D01*
X107903373Y-58847963D01*
X107733534Y-58796443D01*
X107577009Y-58712778D01*
X107541271Y-58683448D01*
X107439814Y-58600186D01*
X107356552Y-58498729D01*
X107327222Y-58462991D01*
X107243557Y-58306466D01*
X107192037Y-58136627D01*
X107174641Y-57960000D01*
X107192037Y-57783373D01*
X107243557Y-57613534D01*
X107327222Y-57457009D01*
X107356552Y-57421271D01*
X107439814Y-57319814D01*
X107541271Y-57236552D01*
X107577009Y-57207222D01*
X107733534Y-57123557D01*
X107903373Y-57072037D01*
X107969558Y-57065518D01*
X108035740Y-57059000D01*
X108124260Y-57059000D01*
X108190442Y-57065518D01*
X108190442Y-57065518D01*
G37*
G36*
X105650442Y-57065518D02*
G01*
X105716627Y-57072037D01*
X105886466Y-57123557D01*
X106042991Y-57207222D01*
X106078729Y-57236552D01*
X106180186Y-57319814D01*
X106263448Y-57421271D01*
X106292778Y-57457009D01*
X106376443Y-57613534D01*
X106427963Y-57783373D01*
X106445359Y-57960000D01*
X106427963Y-58136627D01*
X106376443Y-58306466D01*
X106292778Y-58462991D01*
X106263448Y-58498729D01*
X106180186Y-58600186D01*
X106078729Y-58683448D01*
X106042991Y-58712778D01*
X105886466Y-58796443D01*
X105716627Y-58847963D01*
X105650443Y-58854481D01*
X105584260Y-58861000D01*
X105495740Y-58861000D01*
X105429557Y-58854481D01*
X105363373Y-58847963D01*
X105193534Y-58796443D01*
X105037009Y-58712778D01*
X105001271Y-58683448D01*
X104899814Y-58600186D01*
X104816552Y-58498729D01*
X104787222Y-58462991D01*
X104703557Y-58306466D01*
X104652037Y-58136627D01*
X104634641Y-57960000D01*
X104652037Y-57783373D01*
X104703557Y-57613534D01*
X104787222Y-57457009D01*
X104816552Y-57421271D01*
X104899814Y-57319814D01*
X105001271Y-57236552D01*
X105037009Y-57207222D01*
X105193534Y-57123557D01*
X105363373Y-57072037D01*
X105429558Y-57065518D01*
X105495740Y-57059000D01*
X105584260Y-57059000D01*
X105650442Y-57065518D01*
X105650442Y-57065518D01*
G37*
G36*
X103110442Y-57065518D02*
G01*
X103176627Y-57072037D01*
X103346466Y-57123557D01*
X103502991Y-57207222D01*
X103538729Y-57236552D01*
X103640186Y-57319814D01*
X103723448Y-57421271D01*
X103752778Y-57457009D01*
X103836443Y-57613534D01*
X103887963Y-57783373D01*
X103905359Y-57960000D01*
X103887963Y-58136627D01*
X103836443Y-58306466D01*
X103752778Y-58462991D01*
X103723448Y-58498729D01*
X103640186Y-58600186D01*
X103538729Y-58683448D01*
X103502991Y-58712778D01*
X103346466Y-58796443D01*
X103176627Y-58847963D01*
X103110443Y-58854481D01*
X103044260Y-58861000D01*
X102955740Y-58861000D01*
X102889557Y-58854481D01*
X102823373Y-58847963D01*
X102653534Y-58796443D01*
X102497009Y-58712778D01*
X102461271Y-58683448D01*
X102359814Y-58600186D01*
X102276552Y-58498729D01*
X102247222Y-58462991D01*
X102163557Y-58306466D01*
X102112037Y-58136627D01*
X102094641Y-57960000D01*
X102112037Y-57783373D01*
X102163557Y-57613534D01*
X102247222Y-57457009D01*
X102276552Y-57421271D01*
X102359814Y-57319814D01*
X102461271Y-57236552D01*
X102497009Y-57207222D01*
X102653534Y-57123557D01*
X102823373Y-57072037D01*
X102889558Y-57065518D01*
X102955740Y-57059000D01*
X103044260Y-57059000D01*
X103110442Y-57065518D01*
X103110442Y-57065518D01*
G37*
M02*
